<?xml version="1.0" encoding="utf-8"?>
<!DOCTYPE svg PUBLIC "-//W3C//DTD SVG 1.1//EN" "http://www.w3.org/Graphics/SVG/1.1/DTD/svg11.dtd">
<svg version="1.1" id="Layer_1" xmlns="http://www.w3.org/2000/svg" xmlns:xlink="http://www.w3.org/1999/xlink" x="0px" y="0px"
	 viewBox="0 0 561 642.7936" enable-background="new 0 0 561 642.7936" xml:space="preserve">
<g>
	<path fill="#FF0000" enable-background="new    " d="M434.7499,369.8829c-0.6894-4.8017-2.8574-7.8426-5.84-8.4192
		c-0.2592-0.0501-0.5114-0.0744-0.7572-0.0744c-2.5927,0-4.4373,2.7083-5.492,6.4099c-1.1018-3.8632-2.9825-6.3689-5.7247-6.3688
		c-0.1815,0-0.3669,0.011-0.556,0.0333c-2.7274,0.3216-5.0703,3.239-5.8085,8.926c-1.3278,10.2301,4.9572,20.6877,12.0892,30.861
		C430.2455,391.1465,436.163,379.7257,434.7499,369.8829z"/>
	<path fill="#FF0000" enable-background="new    " d="M467.0083,369.7943c-0.7-4.3665-2.9013-7.1317-5.9298-7.6561
		c-0.2633-0.0456-0.5193-0.0677-0.7689-0.0677c-2.6325,0-4.5056,2.4628-5.5765,5.8289c-1.1187-3.5131-3.0284-5.7917-5.8128-5.7916
		c-0.1843,0-0.3726,0.01-0.5645,0.0303c-2.7693,0.2924-5.1483,2.9454-5.8979,8.117c-1.3483,9.3029,5.0334,18.8126,12.2752,28.0639
		C462.4346,389.1306,468.4431,378.745,467.0083,369.7943z"/>
	<path fill="#FF0000" enable-background="new    " d="M491.6815,363.4489c-0.6362-3.5515-2.6368-5.8006-5.3892-6.2271
		c-0.2393-0.0371-0.4719-0.0551-0.6988-0.0551c-2.3925,0-4.0948,2.0031-5.0681,4.741c-1.0168-2.8573-2.7523-4.7106-5.2829-4.7105
		c-0.1674,0-0.3386,0.0081-0.5131,0.0246c-2.5169,0.2378-4.679,2.3956-5.3601,6.6019c-1.2253,7.5664,4.5745,15.3011,11.1561,22.8257
		C487.5247,379.176,492.9855,370.7289,491.6815,363.4489z"/>
	<path fill="#FF0000" enable-background="new    " d="M513.4726,355.3019c-0.6315-2.8758-2.6175-4.6969-5.3498-5.0423
		c-0.2375-0.03-0.4685-0.0446-0.6937-0.0446c-2.375,0-4.0649,1.622-5.031,3.8389c-1.0093-2.3137-2.7322-3.8144-5.2442-3.8143
		c-0.1663,0-0.3361,0.0066-0.5093,0.0199c-2.4984,0.1926-4.6447,1.9398-5.3209,5.3459c-1.2164,6.1268,4.541,12.3899,11.0744,18.4828
		C509.3463,368.0367,514.7671,361.1968,513.4726,355.3019z"/>
	<path fill="#FF0000" enable-background="new    " d="M548.972,313.5457c-0.6743-2.2489-2.7946-3.6731-5.7117-3.9431
		c-0.2536-0.0235-0.5002-0.0349-0.7406-0.0349c-2.5357,0-4.3398,1.2684-5.3713,3.0021c-1.0776-1.8093-2.917-2.9829-5.5989-2.9828
		c-0.1775,0-0.3589,0.0052-0.5438,0.0156c-2.6675,0.1506-4.9589,1.517-5.6808,4.1805c-1.2986,4.7913,4.8482,9.6891,11.8235,14.4538
		C544.5666,323.5045,550.3541,318.1555,548.972,313.5457z"/>
	<path fill="#FF0000" enable-background="new    " d="M448.0323,313.3809c-0.8222-4.5903-3.4081-7.4972-6.9655-8.0484
		c-0.3092-0.0479-0.61-0.0711-0.9032-0.0711c-3.0923,0-5.2925,2.589-6.5504,6.1276c-1.3141-3.6931-3.5573-6.0884-6.828-6.0883
		c-0.2164,0-0.4376,0.0105-0.6631,0.0318c-3.253,0.3074-6.0475,3.0963-6.9279,8.5329c-1.5837,9.7795,5.9125,19.7765,14.419,29.5017
		C442.6598,333.7079,449.7177,322.7902,448.0323,313.3809z"/>
	<path fill="#FF0000" enable-background="new    " d="M475.0526,319.3671c-0.7396-4.1285-3.0653-6.7431-6.2649-7.2388
		c-0.2781-0.0431-0.5486-0.064-0.8123-0.064c-2.7813,0-4.7602,2.3286-5.8916,5.5113c-1.1819-3.3216-3.1996-5.476-6.1413-5.4759
		c-0.1947,0-0.3936,0.0095-0.5964,0.0286c-2.9258,0.2765-5.4392,2.7849-6.2311,7.6747
		c-1.4244,8.7959,5.3178,17.7873,12.9688,26.5344C470.2204,337.6496,476.5685,327.8299,475.0526,319.3671z"/>
	<path fill="#FF0000" enable-background="new    " d="M502.1059,318.7664c-0.6362-3.5515-2.6368-5.8006-5.3892-6.2271
		c-0.2393-0.0371-0.4719-0.0551-0.6988-0.0551c-2.3925,0-4.0948,2.0031-5.0681,4.7409c-1.0167-2.8573-2.7523-4.7106-5.2829-4.7105
		c-0.1675,0-0.3386,0.0081-0.5131,0.0246c-2.5169,0.2378-4.679,2.3956-5.3601,6.6019c-1.2254,7.5664,4.5745,15.3011,11.1561,22.8256
		C497.9491,334.4935,503.4099,326.0464,502.1059,318.7664z"/>
	<path fill="#FF0000" enable-background="new    " d="M500.7354,217.9275c-0.3467-1.9357-1.4372-3.1616-2.9374-3.394
		c-0.1304-0.0202-0.2572-0.03-0.3809-0.03c-1.304,0-2.2319,1.0918-2.7624,2.584c-0.5542-1.5574-1.5002-2.5675-2.8795-2.5674
		c-0.0913,0-0.1845,0.0044-0.2796,0.0134c-1.3718,0.1296-2.5503,1.3057-2.9216,3.5983c-0.6679,4.124,2.4933,8.3398,6.0807,12.4409
		C498.4698,226.4995,501.4462,221.8954,500.7354,217.9275z"/>
	<path fill="#FF0000" enable-background="new    " d="M485.1616,272.3356c-0.6882-2.0251-2.8526-3.3075-5.8303-3.5506
		c-0.2589-0.0211-0.5106-0.0314-0.756-0.0314c-2.5883,0-4.43,1.1422-5.4829,2.7033c-1.1-1.6292-2.9776-2.686-5.7153-2.6859
		c-0.1812,0-0.3663,0.0046-0.5551,0.014c-2.7229,0.1356-5.0619,1.366-5.7989,3.7644c-1.3256,4.3144,4.949,8.7246,12.0692,13.0151
		C480.6646,281.3031,486.5724,276.4866,485.1616,272.3356z"/>
	<path fill="#FF0000" enable-background="new    " d="M494.5235,257.7772c-0.6199-1.4055-2.5692-2.2955-5.251-2.4643
		c-0.2331-0.0147-0.4598-0.0218-0.6808-0.0218c-2.3311,0-3.9898,0.7927-4.9381,1.8762c-0.9907-1.1308-2.6817-1.8642-5.1473-1.8641
		c-0.1632,0-0.3299,0.0032-0.4999,0.0097c-2.4523,0.0941-4.5589,0.9481-5.2226,2.6127c-1.1939,2.9944,4.4572,6.0553,10.8699,9.0331
		C490.4734,264.001,495.7941,260.6582,494.5235,257.7772z"/>
	<path fill="#FF0000" enable-background="new    " d="M502.4996,242.9476c-0.5165-1.1712-2.1407-1.9128-4.3753-2.0535
		c-0.1942-0.0122-0.3831-0.0181-0.5673-0.0181c-1.9424,0-3.3245,0.6606-4.1147,1.5634c-0.8255-0.9422-2.2345-1.5534-4.289-1.5534
		c-0.136,0-0.2749,0.0027-0.4165,0.0081c-2.0434,0.0784-3.7987,0.79-4.3517,2.1771c-0.9948,2.4952,3.7139,5.0458,9.0573,7.5271
		C499.1249,248.1338,503.5583,245.3483,502.4996,242.9476z"/>
	<path fill="#FF0000" enable-background="new    " d="M469.6571,235.8074c-0.444-3.1381-1.8402-5.1254-3.7611-5.5022
		c-0.167-0.0328-0.3293-0.0486-0.4877-0.0486c-1.6697,0-2.8578,1.7699-3.537,4.1891c-0.7096-2.5247-1.9208-4.1623-3.6869-4.1622
		c-0.1169,0-0.2363,0.0072-0.3581,0.0218c-1.7565,0.2102-3.2654,2.1168-3.7408,5.8334c-0.8552,6.6857,3.1925,13.52,7.7858,20.1686
		C466.7561,249.7038,470.5671,242.24,469.6571,235.8074z"/>
	<path fill="#FF0000" enable-background="new    " d="M483.0027,222.9192c-0.348-2.4919-1.4425-4.07-2.9483-4.3692
		c-0.1309-0.026-0.2582-0.0386-0.3823-0.0386c-1.3089,0-2.2402,1.4055-2.7726,3.3265c-0.5562-2.0049-1.5057-3.3052-2.8901-3.3052
		c-0.0916,0-0.1852,0.0057-0.2807,0.0173c-1.3769,0.1669-2.5597,1.6809-2.9324,4.6323c-0.6703,5.309,2.5026,10.7361,6.1032,16.0157
		C480.7286,233.9542,483.7161,228.0273,483.0027,222.9192z"/>
	<path fill="#FF0000" enable-background="new    " d="M453.4963,164.0789c-0.3027-1.9998-1.2545-3.2662-2.5639-3.5063
		c-0.1138-0.0209-0.2245-0.031-0.3325-0.031c-1.1382,0-1.9481,1.1279-2.4111,2.6696c-0.4837-1.6089-1.3094-2.6525-2.5133-2.6524
		c-0.0797,0-0.1611,0.0046-0.2441,0.0139c-1.1974,0.1339-2.226,1.3489-2.5501,3.7175c-0.5829,4.2605,2.1763,8.6158,5.3075,12.8527
		C451.5187,172.9346,454.1167,168.1782,453.4963,164.0789z"/>
	<path fill="#FF0000" enable-background="new    " d="M437.0322,234.3476c-0.5674-2.8514-2.352-4.6571-4.807-4.9995
		c-0.2134-0.0298-0.421-0.0442-0.6233-0.0442c-2.1341,0-3.6525,1.6083-4.5206,3.8064c-0.9069-2.2941-2.455-3.782-4.7122-3.7819
		c-0.1494,0-0.302,0.0065-0.4576,0.0198c-2.245,0.191-4.1735,1.9234-4.7811,5.3005c-1.093,6.0749,4.0804,12.2848,9.9509,18.326
		C433.3245,246.9744,438.1954,240.1925,437.0322,234.3476z"/>
	<path fill="#FF0000" enable-background="new    " d="M443.8698,215.8901c-0.4434-2.2281-1.8379-3.6391-3.7563-3.9066
		c-0.1668-0.0233-0.3289-0.0345-0.4871-0.0345c-1.6676,0-2.8541,1.2567-3.5325,2.9743c-0.7086-1.7926-1.9183-2.9553-3.6821-2.9552
		c-0.1167,0-0.236,0.0051-0.3576,0.0154c-1.7542,0.1492-3.2612,1.5029-3.736,4.1418c-0.8541,4.7469,3.1884,9.5993,7.7758,14.3199
		C440.9725,225.7567,444.7787,220.4573,443.8698,215.8901z"/>
	<path fill="#FF0000" enable-background="new    " d="M448.3423,198.2248c-0.3633-1.8255-1.5058-2.9816-3.0776-3.2008
		c-0.1367-0.0191-0.2695-0.0283-0.399-0.0283c-1.3663,0-2.3384,1.0296-2.8943,2.437c-0.5806-1.4687-1.5718-2.4214-3.0169-2.4213
		c-0.0956,0-0.1934,0.0042-0.293,0.0127c-1.4373,0.1223-2.672,1.2314-3.061,3.3935c-0.6998,3.8893,2.6124,7.8651,6.3709,11.7329
		C445.9686,206.3089,449.087,201.9669,448.3423,198.2248z"/>
	<path fill="#FF0000" enable-background="new    " d="M449.5142,180.2588c-0.3633-1.8256-1.5059-2.9816-3.0777-3.2009
		c-0.1366-0.0191-0.2695-0.0283-0.3991-0.0283c-1.3663,0-2.3385,1.0296-2.8943,2.437c-0.5807-1.4687-1.5718-2.4214-3.017-2.4213
		c-0.0956,0-0.1934,0.0042-0.293,0.0126c-1.4373,0.1223-2.6721,1.2314-3.0611,3.3936c-0.6998,3.8893,2.6125,7.8651,6.3711,11.7329
		C447.1404,188.3429,450.2589,184.0009,449.5142,180.2588z"/>
	<path fill="#FF0000" enable-background="new    " d="M473.0775,207.4164c-0.5063-1.9314-2.0983-3.1545-4.2886-3.3864
		c-0.1904-0.0202-0.3755-0.0299-0.5561-0.0299c-1.904,0-3.2586,1.0894-4.0331,2.5782c-0.8091-1.5539-2.1902-2.5618-4.204-2.5617
		c-0.1333,0-0.2694,0.0044-0.4083,0.0134c-2.0029,0.1293-3.7234,1.3028-4.2655,3.5903c-0.9751,4.1148,3.6403,8.3212,8.8778,12.4132
		C469.7697,215.9692,474.1152,211.3755,473.0775,207.4164z"/>
	<path fill="#FF0000" enable-background="new    " d="M470.0808,192.0946c-0.4008-1.5289-1.661-2.4971-3.3949-2.6807
		c-0.1507-0.016-0.2973-0.0237-0.4402-0.0237c-1.5072,0-2.5795,0.8623-3.1927,2.041c-0.6405-1.2301-1.7338-2.0279-3.3279-2.0278
		c-0.1055,0-0.2133,0.0035-0.3232,0.0106c-1.5855,0.1024-2.9475,1.0313-3.3766,2.8421c-0.7719,3.2573,2.8817,6.5871,7.0277,9.8263
		C467.4623,198.865,470.9023,195.2286,470.0808,192.0946z"/>
	<path fill="#FF0000" enable-background="new    " d="M467.7628,178.1724c-0.3796-1.4484-1.5735-2.3656-3.216-2.5395
		c-0.1428-0.0151-0.2816-0.0224-0.417-0.0224c-1.4278,0-2.4436,0.8169-3.0244,1.9334c-0.6068-1.1653-1.6425-1.9211-3.1526-1.921
		c-0.0999,0-0.2021,0.0033-0.3062,0.01c-1.502,0.097-2.7922,0.977-3.1987,2.6924c-0.7312,3.0857,2.7299,6.2401,6.6574,9.3087
		C465.2823,184.5862,468.541,181.1413,467.7628,178.1724z"/>
	<path fill="#FF0000" enable-background="new    " d="M147.0832,350.403c-0.8104-4.6617-3.3588-7.6138-6.8648-8.1736
		c-0.3048-0.0487-0.6011-0.0723-0.8901-0.0723c-3.0476,0-5.216,2.6293-6.4558,6.2229c-1.2951-3.7505-3.5059-6.1831-6.7293-6.183
		c-0.2133,0-0.4313,0.0107-0.6535,0.0323c-3.206,0.3122-5.9601,3.1445-6.8277,8.6656c-1.5608,9.9316,5.827,20.0841,14.2106,29.9607
		C141.7884,371.0463,148.7443,359.9587,147.0832,350.403z"/>
	<path fill="#FF0000" enable-background="new    " d="M113.7537,346.3481c-0.8037-3.7544-3.331-6.1319-6.808-6.5828
		c-0.3022-0.0392-0.5962-0.0582-0.8827-0.0582c-3.0224,0-5.1729,2.1176-6.4023,5.0118c-1.2844-3.0205-3.4769-4.9797-6.6736-4.9796
		c-0.2116,0-0.4277,0.0086-0.6481,0.026c-3.1795,0.2514-5.9107,2.5325-6.7712,6.9791c-1.5479,7.9987,5.7788,16.1752,14.093,24.1295
		C108.5027,362.9736,115.401,354.0439,113.7537,346.3481z"/>
	<path fill="#FF0000" enable-background="new    " d="M85.4363,336.209c-0.6913-3.2296-2.8654-5.2749-5.8564-5.6627
		c-0.26-0.0338-0.5128-0.0501-0.7594-0.0501c-2.6,0-4.4498,1.8216-5.5075,4.3113c-1.1049-2.5984-2.9909-4.2837-5.7409-4.2836
		c-0.182,0-0.368,0.0074-0.5575,0.0224c-2.7351,0.2163-5.0846,2.1785-5.8248,6.0036c-1.3316,6.8807,4.9711,13.9144,12.1232,20.757
		C80.9192,350.5107,86.8534,342.8292,85.4363,336.209z"/>
	<path fill="#FF0000" enable-background="new    " d="M61.3581,322.3813c-0.7421-2.4483-3.0759-3.9987-6.2866-4.2927
		c-0.2791-0.0256-0.5505-0.0379-0.8151-0.0379c-2.7909,0-4.7767,1.3809-5.9121,3.2682c-1.1861-1.9698-3.2106-3.2473-6.1626-3.2473
		c-0.1954,0-0.395,0.0056-0.5985,0.017c-2.936,0.164-5.4581,1.6515-6.2527,4.5512c-1.4294,5.216,5.3363,10.5481,13.0138,15.7352
		C56.5092,333.2231,62.8792,327.3999,61.3581,322.3813z"/>
	<path fill="#FF0000" enable-background="new    " d="M38.1704,289.0012c-0.7521-2.0433-3.1172-3.3372-6.3709-3.5826
		c-0.2828-0.0213-0.5579-0.0317-0.8261-0.0317c-2.8284,0-4.8408,1.1525-5.9913,2.7276c-1.202-1.6439-3.2537-2.7101-6.2452-2.7101
		c-0.198,0-0.4003,0.0047-0.6065,0.0142c-2.9753,0.1368-5.5313,1.3783-6.3365,3.7983c-1.4486,4.3532,5.4078,8.8032,13.1883,13.1322
		C33.2565,298.0495,39.712,293.1896,38.1704,289.0012z"/>
	<path fill="#FF0000" enable-background="new    " d="M142.2107,296.005c-0.6921-4.4145-2.8685-7.2101-5.8627-7.7402
		c-0.2603-0.0461-0.5134-0.0684-0.7602-0.0684c-2.6028,0-4.4546,2.4899-5.5134,5.8929c-1.1061-3.5516-2.9941-5.8553-5.747-5.8551
		c-0.1822,0-0.3683,0.0101-0.5581,0.0306c-2.738,0.2957-5.09,2.9778-5.8311,8.2062c-1.333,9.405,4.9764,19.0191,12.1362,28.372
		C137.6888,315.5536,143.6293,305.054,142.2107,296.005z"/>
	<path fill="#FF0000" enable-background="new    " d="M111.1365,298.8246c-0.5953-3.7974-2.4676-6.2023-5.0433-6.6583
		c-0.2239-0.0397-0.4416-0.0588-0.6539-0.0588c-2.239,0-3.832,2.1418-4.7428,5.0692c-0.9515-3.0552-2.5757-5.0368-4.9438-5.0367
		c-0.1567,0-0.3169,0.0087-0.4801,0.0263c-2.3553,0.2543-4.3787,2.5615-5.0161,7.0591
		c-1.1467,8.0904,4.2809,16.3607,10.4401,24.4063C107.2465,315.6408,112.3568,306.6088,111.1365,298.8246z"/>
	<path fill="#FF0000" enable-background="new    " d="M82.9583,294.0013c-0.5024-3.2045-2.0823-5.2338-4.2558-5.6186
		c-0.1889-0.0335-0.3727-0.0497-0.5518-0.0497c-1.8894,0-3.2337,1.8074-4.0023,4.2777c-0.8029-2.5782-2.1735-4.2504-4.1718-4.2503
		c-0.1322,0-0.2674,0.0074-0.4052,0.0222c-1.9875,0.2146-3.6949,2.1616-4.2329,5.9568c-0.9676,6.8271,3.6125,13.8061,8.8099,20.5953
		C79.6758,308.1917,83.9881,300.57,82.9583,294.0013z"/>
	<path fill="#FF0000" enable-background="new    " d="M58.8427,286.1281c-0.4439-2.8315-1.8398-4.6246-3.7602-4.9646
		c-0.1669-0.0296-0.3293-0.0439-0.4876-0.0439c-1.6694,0-2.8571,1.597-3.5362,3.7798c-0.7094-2.278-1.9204-3.7556-3.6861-3.7555
		c-0.1168,0-0.2363,0.0065-0.358,0.0196c-1.7561,0.1896-3.2647,1.9099-3.74,5.2635c-0.855,6.0324,3.1918,12.199,7.784,18.198
		C55.9424,298.6667,59.7526,291.9322,58.8427,286.1281z"/>
	<path fill="#FF0000" enable-background="new    " d="M43.1439,311.348c-0.679-1.7972-2.8144-2.9354-5.7522-3.1512
		c-0.2554-0.0188-0.5037-0.0279-0.7458-0.0279c-2.5537,0-4.3706,1.0137-5.4095,2.3991c-1.0852-1.446-2.9377-2.3838-5.6387-2.3838
		c-0.1787,0-0.3614,0.0041-0.5476,0.0125c-2.6864,0.1203-4.9941,1.2123-5.7212,3.3409c-1.3079,3.8289,4.8826,7.7431,11.9075,11.5508
		C38.7072,319.3066,44.5358,315.032,43.1439,311.348z"/>
	<path fill="#FF0000" enable-background="new    " d="M107.1225,261.7058c-0.6989-2.5118-2.8969-4.1024-5.9207-4.4041
		c-0.2628-0.0262-0.5185-0.0389-0.7677-0.0389c-2.6285,0-4.4987,1.4167-5.5679,3.353c-1.117-2.0208-3.0238-3.3316-5.8039-3.3315
		c-0.184,0-0.372,0.0058-0.5637,0.0174c-2.7651,0.1682-5.1404,1.6943-5.8887,4.6692c-1.3462,5.3513,5.0257,10.8217,12.2563,16.1434
		C102.5558,272.8288,108.5551,266.8546,107.1225,261.7058z"/>
	<path fill="#FF0000" enable-background="new    " d="M91.6779,248.0376c-0.7762-1.8607-3.2171-3.0391-6.5752-3.2625
		c-0.2919-0.0194-0.5758-0.0288-0.8526-0.0288c-2.9191,0-4.996,1.0495-6.1835,2.4839c-1.2405-1.497-3.358-2.468-6.4455-2.468
		c-0.2043,0-0.4131,0.0043-0.626,0.0129c-3.0708,0.1246-5.7087,1.2551-6.5398,3.459c-1.495,3.9643,5.5813,8.0167,13.6112,11.959
		C86.6064,256.2775,93.2689,251.8518,91.6779,248.0376z"/>
	<path fill="#FF0000" enable-background="new    " d="M78.6127,230.8873c-0.6677-1.6007-2.7674-2.6144-5.6562-2.8066
		c-0.2511-0.0167-0.4953-0.0248-0.7334-0.0248c-2.511,0-4.2977,0.9028-5.3192,2.1368c-1.0671-1.2878-2.8886-2.1231-5.5446-2.1231
		c-0.1758,0-0.3554,0.0037-0.5385,0.0111c-2.6415,0.1072-4.9107,1.0797-5.6256,2.9756c-1.286,3.4103,4.8011,6.8965,11.7087,10.2879
		C74.25,237.9757,79.9813,234.1684,78.6127,230.8873z"/>
	<path fill="#FF0000" enable-background="new    " d="M72.4281,214.244c-0.6379-1.3559-2.6441-2.2146-5.4041-2.3774
		c-0.2399-0.0142-0.4732-0.021-0.7007-0.021c-2.3992,0-4.1062,0.7648-5.0821,1.81c-1.0196-1.0909-2.7599-1.7984-5.2975-1.7984
		c-0.1679,0-0.3395,0.0031-0.5145,0.0094c-2.5238,0.0908-4.6919,0.9146-5.375,2.5205c-1.2287,2.8887,4.5872,5.8417,11.1869,8.7145
		C68.2599,220.2484,73.7357,217.0234,72.4281,214.244z"/>
	<path fill="#FF0000" enable-background="new    " d="M68.9985,189.0295c-0.3627-2.0013-1.5035-3.2687-3.0729-3.509
		c-0.1364-0.0209-0.2691-0.031-0.3985-0.031c-1.3642,0-2.3349,1.1288-2.8898,2.6716c-0.5798-1.6101-1.5694-2.6545-3.0123-2.6544
		c-0.0955,0-0.1931,0.0046-0.2925,0.0139c-1.4351,0.134-2.6679,1.35-3.0563,3.7203c-0.6987,4.2638,2.6084,8.6223,6.3612,12.8625
		C66.6284,197.8918,69.7421,193.1318,68.9985,189.0295z"/>
	<path fill="#FF0000" enable-background="new    " d="M100.4927,215.421c-0.3767-2.4996-1.5615-4.0826-3.1913-4.3827
		c-0.1417-0.0261-0.2795-0.0387-0.4138-0.0387c-1.4168,0-2.4249,1.4098-3.0012,3.3368c-0.6021-2.011-1.6298-3.3154-3.1284-3.3154
		c-0.0992,0-0.2005,0.0057-0.3038,0.0173c-1.4904,0.1674-2.7707,1.6861-3.1741,4.6466c-0.7256,5.3254,2.7089,10.7692,6.6063,16.0651
		C98.0312,226.49,101.2649,220.5448,100.4927,215.421z"/>
	<path fill="#FF0000" enable-background="new    " d="M88.6126,202.9942c-0.3384-2.2451-1.4025-3.6669-2.8664-3.9365
		c-0.1273-0.0235-0.251-0.0348-0.3717-0.0348c-1.2725,0-2.1779,1.2663-2.6956,2.997c-0.5408-1.8063-1.4639-2.9779-2.8098-2.9778
		c-0.0891,0-0.1801,0.0051-0.2729,0.0156c-1.3387,0.1504-2.4886,1.5144-2.8509,4.1735c-0.6517,4.7832,2.4331,9.6727,5.9336,14.4294
		C86.4017,212.9362,89.3062,207.5963,88.6126,202.9942z"/>
	<path fill="#FF0000" enable-background="new    " d="M438.5502,127.453c-0.727-1.9274-3.0132-3.148-6.1584-3.3794
		c-0.2734-0.0201-0.5393-0.0299-0.7985-0.0299c-2.734,0-4.6793,1.0871-5.7915,2.5729c-1.1619-1.5507-3.1452-2.5565-6.0369-2.5564
		c-0.1913,0-0.3869,0.0044-0.5863,0.0134c-2.8761,0.1291-5.3468,1.3001-6.1252,3.5829c-1.4002,4.1063,5.2275,8.3039,12.7484,12.3875
		C433.8001,135.9881,440.0403,131.4038,438.5502,127.453z"/>
	<path fill="#FF0000" enable-background="new    " d="M430.6042,48.3582c-0.2915-2.0672-1.2082-3.3763-2.4693-3.6245
		c-0.1096-0.0216-0.2162-0.032-0.3202-0.032c-1.0962,0-1.8762,1.1659-2.3221,2.7595c-0.4659-1.6631-1.2611-2.7419-2.4205-2.7418
		c-0.0768,0-0.1552,0.0047-0.2351,0.0143c-1.1532,0.1384-2.1438,1.3944-2.4559,3.8427c-0.5614,4.4041,2.096,8.9061,5.1116,13.2858
		C428.6996,57.5123,431.2017,52.5956,430.6042,48.3582z"/>
	<path fill="#FF0000" enable-background="new    " d="M402.9831,116.1382c-0.5606-2.8925-2.3237-4.7242-4.7492-5.0715
		c-0.2108-0.0302-0.4159-0.0448-0.6158-0.0448c-2.1084,0-3.6086,1.6314-4.4662,3.8612c-0.896-2.3271-2.4255-3.8365-4.6555-3.8364
		c-0.1476,0-0.2984,0.0066-0.4521,0.0201c-2.218,0.1937-4.1233,1.9511-4.7236,5.3769c-1.0798,6.1624,4.0313,12.4618,9.8312,18.59
		C399.32,128.9469,404.1323,122.0673,402.9831,116.1382z"/>
	<path fill="#FF0000" enable-background="new    " d="M412.0027,101.7759c-0.4608-2.1314-1.9101-3.4812-3.9038-3.7372
		c-0.1733-0.0223-0.3419-0.033-0.5062-0.033c-1.7331,0-2.9662,1.2022-3.6712,2.8453c-0.7365-1.7148-1.9937-2.8271-3.8268-2.827
		c-0.1213,0-0.2453,0.0049-0.3717,0.0148c-1.8232,0.1427-3.3893,1.4377-3.8828,3.9622c-0.8876,4.541,3.3137,9.183,8.0812,13.6989
		C408.9917,111.2146,412.9473,106.145,412.0027,101.7759z"/>
	<path fill="#FF0000" enable-background="new    " d="M418.2342,85.514c-0.3896-1.6875-1.615-2.7561-3.3007-2.9588
		c-0.1465-0.0176-0.289-0.0262-0.428-0.0262c-1.4653,0-2.5079,0.9518-3.104,2.2527c-0.6227-1.3577-1.6857-2.2383-3.2356-2.2382
		c-0.1026,0-0.2074,0.0039-0.3142,0.0117c-1.5415,0.113-2.8657,1.1383-3.2829,3.1369c-0.7505,3.5952,2.8017,7.2703,6.8327,10.8456
		C415.6883,92.9868,419.0328,88.9731,418.2342,85.514z"/>
	<path fill="#FF0000" enable-background="new    " d="M421.5971,67.0999c-0.3329-2.0082-1.38-3.28-2.8204-3.5211
		c-0.1252-0.021-0.247-0.0311-0.3657-0.0311c-1.2521,0-2.143,1.1327-2.6524,2.6808c-0.5321-1.6157-1.4404-2.6637-2.7648-2.6636
		c-0.0876,0-0.1772,0.0046-0.2685,0.0139c-1.3172,0.1345-2.4487,1.3546-2.8052,3.7331c-0.6413,4.2785,2.394,8.6522,5.8385,12.907
		C419.4217,75.9929,422.2796,71.2164,421.5971,67.0999z"/>
	<path fill="#FF0000" enable-background="new    " d="M441.6299,107.4113c-0.617-1.6136-2.5573-2.6355-5.2267-2.8293
		c-0.2321-0.0169-0.4577-0.025-0.6777-0.025c-2.3204,0-3.9714,0.9101-4.9153,2.1541c-0.9861-1.2982-2.6693-2.1403-5.1236-2.1403
		c-0.1624,0-0.3284,0.0037-0.4976,0.0112c-2.441,0.1081-4.5379,1.0885-5.1985,2.9996c-1.1884,3.4379,4.4366,6.9522,10.8197,10.371
		C437.5984,114.557,442.8946,110.719,441.6299,107.4113z"/>
	<path fill="#FF0000" enable-background="new    " d="M443.2391,89.7265c-0.4994-1.2496-2.07-2.0409-4.2307-2.191
		c-0.1878-0.0131-0.3705-0.0194-0.5486-0.0194c-1.8782,0-3.2145,0.7048-3.9785,1.6681c-0.7982-1.0054-2.1606-1.6574-4.1472-1.6574
		c-0.1314,0-0.2658,0.0029-0.4027,0.0087c-1.9758,0.0837-3.6731,0.8429-4.2078,2.3229c-0.9619,2.6623,3.5911,5.3837,8.7578,8.0313
		C439.976,95.2601,444.2628,92.2879,443.2391,89.7265z"/>
	<path fill="#FF0000" enable-background="new    " d="M442.5396,72.3258c-0.4257-1.3034-1.7645-2.1289-3.6063-2.2854
		c-0.1601-0.0136-0.3158-0.0202-0.4676-0.0202c-1.601,0-2.7402,0.7352-3.3915,1.74c-0.6804-1.0487-1.8418-1.7289-3.5352-1.7288
		c-0.1121,0-0.2266,0.003-0.3433,0.009c-1.6842,0.0873-3.1311,0.8792-3.5869,2.423c-0.82,2.777,3.0612,5.6157,7.4654,8.3773
		C439.758,78.0978,443.4122,74.9976,442.5396,72.3258z"/>
	<path fill="#FF0000" enable-background="new    " d="M435.6141,174.1327c-0.3328-1.1505-1.3792-1.8791-2.8188-2.0173
		c-0.1252-0.012-0.2468-0.0178-0.3655-0.0178c-1.2514,0-2.1418,0.6489-2.6509,1.5358c-0.5318-0.9256-1.4396-1.526-2.7632-1.526
		c-0.0876,0-0.1771,0.0026-0.2683,0.008c-1.3164,0.0771-2.4473,0.7761-2.8036,2.1387c-0.6409,2.4512,2.3927,4.9568,5.8352,7.3944
		C433.4399,179.2276,436.2962,176.4911,435.6141,174.1327z"/>
	<path fill="#FF0000" enable-background="new    " d="M363.4907,129.3005c-0.6382-1.6286-2.6454-2.66-5.4066-2.8555
		c-0.2401-0.017-0.4734-0.0252-0.701-0.0252c-2.4003,0-4.1081,0.9186-5.0845,2.174c-1.0201-1.3103-2.7612-2.1601-5.3-2.1601
		c-0.168,0-0.3397,0.0037-0.5147,0.0113c-2.525,0.1091-4.6941,1.0986-5.3775,3.0275c-1.2293,3.4697,4.5893,7.0166,11.1922,10.4671
		C359.3205,136.5125,364.799,132.6389,363.4907,129.3005z"/>
	<path fill="#FF0000" enable-background="new    " d="M386.3999,75.6022c-0.2931-1.5263-1.2148-2.4929-2.4829-2.6762
		c-0.1102-0.0159-0.2174-0.0237-0.322-0.0237c-1.1023,0-1.8866,0.8609-2.335,2.0375c-0.4684-1.228-1.2681-2.0245-2.434-2.0245
		c-0.0771,0-0.156,0.0035-0.2364,0.0106c-1.1596,0.1022-2.1557,1.0296-2.4695,2.8373c-0.5645,3.2519,2.1076,6.576,5.1399,9.8098
		C384.4848,82.3612,387.0007,78.7309,386.3999,75.6022z"/>
	<path fill="#FF0000" enable-background="new    " d="M434.4922,147.1685c-0.8356-1.7697-3.4634-2.8905-7.0786-3.103
		c-0.3142-0.0185-0.6198-0.0274-0.9178-0.0274c-3.1425,0-5.3785,0.9982-6.6568,2.3624c-1.3354-1.4238-3.6151-2.3473-6.9389-2.3473
		c-0.22,0-0.4447,0.0041-0.6739,0.0123c-3.3058,0.1185-6.1457,1.1938-7.0404,3.2898c-1.6095,3.7704,6.0085,7.6247,14.6532,11.3742
		C429.0324,155.0054,436.205,150.7961,434.4922,147.1685z"/>
	<path fill="#FF0000" enable-background="new    " d="M393.3057,140.3069c-0.558-1.8005-2.3126-2.9407-4.7265-3.1569
		c-0.2098-0.0188-0.4139-0.0279-0.6129-0.0279c-2.0983,0-3.5913,1.0155-4.4449,2.4035c-0.8917-1.4485-2.4138-2.3881-4.6332-2.388
		c-0.1469,0-0.297,0.0041-0.45,0.0125c-2.2074,0.1206-4.1036,1.2145-4.701,3.3469c-1.0747,3.8359,4.012,7.7571,9.7842,11.5717
		C389.6601,148.2799,394.4493,143.9975,393.3057,140.3069z"/>
	<path fill="#FF0000" enable-background="new    " d="M385.6776,103.2132c-0.4408-1.1246-1.8269-1.8368-3.7338-1.9718
		c-0.1658-0.0117-0.327-0.0174-0.4841-0.0174c-1.6577,0-2.8371,0.6343-3.5114,1.5012c-0.7044-0.9048-1.9069-1.4916-3.6602-1.4916
		c-0.116,0-0.2346,0.0026-0.3555,0.0078c-1.7438,0.0753-3.2418,0.7586-3.7137,2.0905c-0.849,2.3959,3.1694,4.8452,7.7293,7.2278
		C382.7977,108.1932,386.5811,105.5184,385.6776,103.2132z"/>
	<path fill="#FF0000" enable-background="new    " d="M387.4249,89.7567c-0.369-1.32-1.5296-2.156-3.1263-2.3145
		c-0.1388-0.0138-0.2738-0.0205-0.4054-0.0205c-1.3879,0-2.3755,0.7445-2.9401,1.7621c-0.5898-1.062-1.5966-1.7509-3.0646-1.7508
		c-0.0971,0-0.1964,0.003-0.2976,0.0091c-1.4601,0.0884-2.7143,0.8904-3.1094,2.4538c-0.7108,2.8123,2.6537,5.6872,6.4717,8.484
		C385.0135,95.6023,388.1814,92.4626,387.4249,89.7567z"/>
	<path fill="#FF0000" enable-background="new    " d="M362.5672,112.8863c-0.4839-1.5097-2.0055-2.4658-4.0989-2.6471
		c-0.182-0.0158-0.3589-0.0234-0.5315-0.0234c-1.8197,0-3.1144,0.8515-3.8547,2.0153c-0.7733-1.2146-2.0934-2.0024-4.018-2.0024
		c-0.1273,0-0.2575,0.0035-0.3902,0.0105c-1.9143,0.1011-3.5587,1.0184-4.0768,2.8064c-0.932,3.2164,3.4793,6.5044,8.485,9.7029
		C359.4057,119.5717,363.559,115.981,362.5672,112.8863z"/>
	<path fill="#FF0000" enable-background="new    " d="M364.1582,99.0714c-0.3286-1.3834-1.3621-2.2596-2.7839-2.4257
		c-0.1236-0.0145-0.2438-0.0214-0.361-0.0214c-1.2359,0-2.1153,0.7803-2.6181,1.8468c-0.5252-1.113-1.4218-1.835-2.729-1.8349
		c-0.0865,0-0.1749,0.0032-0.265,0.0096c-1.3002,0.0926-2.4171,0.9332-2.769,2.5717c-0.633,2.9474,2.3631,5.9604,5.763,8.8915
		C362.0109,105.1978,364.8318,101.9073,364.1582,99.0714z"/>
	<path fill="#FF0000" enable-background="new    " d="M369.3781,85.2834c-0.2786-1.4853-1.1546-2.4259-2.3598-2.6042
		c-0.1048-0.0155-0.2067-0.023-0.306-0.023c-1.0477,0-1.7931,0.8377-2.2193,1.9827c-0.4452-1.195-1.2052-1.9701-2.3133-1.97
		c-0.0733,0-0.1483,0.0034-0.2246,0.0103c-1.1021,0.0995-2.0489,1.0019-2.3471,2.761c-0.5366,3.1644,2.0031,6.3992,4.8851,9.546
		C367.5579,91.8607,369.9491,88.328,369.3781,85.2834z"/>
	<path fill="#FF0000" enable-background="new    " d="M366.3518,148.8849c-0.8036-2.0507-3.3308-3.3493-6.8076-3.5956
		c-0.3022-0.0214-0.5961-0.0318-0.8827-0.0318c-3.0222,0-5.1726,1.1566-6.402,2.7375c-1.2844-1.6499-3.4767-2.72-6.6733-2.7199
		c-0.2115,0-0.4277,0.0047-0.6481,0.0142c-3.1793,0.1373-5.9105,1.3833-6.7709,3.812c-1.5479,4.3689,5.7786,8.835,14.0923,13.1797
		C361.1011,157.9659,367.9991,153.0884,366.3518,148.8849z"/>
	<path fill="#FF0000" enable-background="new    " d="M397.0541,183.9026c-0.3493-2.1935-1.448-3.5827-2.9594-3.8461
		c-0.1314-0.0229-0.2592-0.034-0.3837-0.034c-1.3138,0-2.2486,1.2372-2.7831,2.9282c-0.5583-1.7648-1.5114-2.9095-2.901-2.9094
		c-0.092,0-0.1859,0.005-0.2817,0.0152c-1.3821,0.1469-2.5694,1.4796-2.9435,4.0776c-0.6729,4.6734,2.512,9.4506,6.1262,14.0981
		C394.7715,193.6163,397.7702,188.399,397.0541,183.9026z"/>
	<path fill="#FF0000" enable-background="new    " d="M409.9803,182.5508c-0.2863-1.7973-1.1865-2.9355-2.4249-3.1513
		c-0.1076-0.0188-0.2123-0.0278-0.3144-0.0278c-1.0765,0-1.8425,1.0137-2.2804,2.3993c-0.4575-1.446-1.2384-2.3839-2.3771-2.3839
		c-0.0753,0-0.1524,0.0041-0.2309,0.0125c-1.1325,0.1204-2.1053,1.2124-2.4118,3.3411c-0.5514,3.8292,2.0583,7.7435,5.0198,11.5514
		C408.11,190.5098,410.5671,186.235,409.9803,182.5508z"/>
	<path fill="#FF0000" enable-background="new    " d="M422.4289,174.3093c-0.2863-1.7973-1.1865-2.9354-2.4249-3.1513
		c-0.1077-0.0188-0.2123-0.0278-0.3144-0.0278c-1.0765,0-1.8425,1.0137-2.2805,2.3992c-0.4575-1.446-1.2384-2.3839-2.3771-2.3838
		c-0.0753,0-0.1523,0.0041-0.2308,0.0125c-1.1325,0.1204-2.1053,1.2123-2.4119,3.341c-0.5513,3.8291,2.0584,7.7433,5.0198,11.5511
		C420.5586,182.2681,423.0157,177.9934,422.4289,174.3093z"/>
	<path fill="#FF0000" enable-background="new    " d="M419.0275,201.3007c-0.4483-1.1481-1.8579-1.8752-3.7973-2.0131
		c-0.1686-0.012-0.3325-0.0178-0.4924-0.0178c-1.6858,0-2.8853,0.6476-3.571,1.5326c-0.7164-0.9237-1.9393-1.5228-3.7224-1.5228
		c-0.118,0-0.2386,0.0026-0.3615,0.0079c-1.7734,0.0769-3.2968,0.7745-3.7768,2.1342c-0.8634,2.4461,3.2232,4.9465,7.8606,7.379
		C416.0986,206.3849,419.9463,203.6541,419.0275,201.3007z"/>
	<path fill="#FF0000" enable-background="new    " d="M432.0497,193.8134c-0.4482-1.1481-1.8579-1.8752-3.7973-2.0131
		c-0.1686-0.012-0.3325-0.0178-0.4924-0.0178c-1.6858,0-2.8853,0.6476-3.5711,1.5327c-0.7164-0.9237-1.9393-1.5229-3.7224-1.5228
		c-0.118,0-0.2386,0.0026-0.3615,0.008c-1.7734,0.0769-3.2968,0.7745-3.7768,2.1343c-0.8634,2.4461,3.2233,4.9466,7.8607,7.3792
		C429.1208,198.8977,432.9686,196.1669,432.0497,193.8134z"/>
	<path fill="#FF0000" enable-background="new    " d="M405.9311,211.627c-0.3328-1.1505-1.3792-1.8791-2.8188-2.0172
		c-0.1252-0.012-0.2469-0.0178-0.3655-0.0178c-1.2514,0-2.1418,0.6489-2.6509,1.5358c-0.5318-0.9256-1.4396-1.526-2.7632-1.5259
		c-0.0876,0-0.1771,0.0026-0.2684,0.008c-1.3164,0.0771-2.4473,0.776-2.8036,2.1387c-0.6409,2.4511,2.3927,4.9567,5.8352,7.3942
		C403.7569,216.7217,406.6132,213.9853,405.9311,211.627z"/>
	<path fill="#FF0000" enable-background="new    " d="M353.9395,248.5763c-0.4008-2.8661-1.661-4.6811-3.3949-5.0253
		c-0.1507-0.0299-0.2973-0.0444-0.4402-0.0444c-1.5071,0-2.5795,1.6165-3.1926,3.826c-0.6405-2.3059-1.7338-3.8015-3.3279-3.8014
		c-0.1055,0-0.2133,0.0066-0.3232,0.0199c-1.5855,0.1919-2.9475,1.9333-3.3766,5.3278c-0.7719,6.1062,2.8817,12.3481,7.0277,18.4204
		C351.321,261.2682,354.7609,254.4513,353.9395,248.5763z"/>
	<path fill="#FF0000" enable-background="new    " d="M365.8002,241.2319c-0.3257-2.2091-1.3498-3.6081-2.7587-3.8734
		c-0.1225-0.0231-0.2416-0.0342-0.3577-0.0342c-1.2247,0-2.0961,1.246-2.5944,2.949c-0.5205-1.7773-1.4089-2.9301-2.7043-2.9301
		c-0.0857,0-0.1733,0.0051-0.2626,0.0153c-1.2884,0.1479-2.3951,1.4901-2.7438,4.1066c-0.6273,4.7065,2.3417,9.5177,5.7108,14.1981
		C363.6724,251.0146,366.4678,245.7602,365.8002,241.2319z"/>
	<path fill="#FF0000" enable-background="new    " d="M377.1893,230.7062c-0.305-2.0612-1.264-3.3665-2.5835-3.614
		c-0.1147-0.0215-0.2262-0.0319-0.335-0.0319c-1.1469,0-1.963,1.1626-2.4296,2.7515c-0.4874-1.6583-1.3194-2.7339-2.5325-2.7339
		c-0.0803,0-0.1623,0.0047-0.246,0.0143c-1.2065,0.138-2.243,1.3904-2.5695,3.8316c-0.5874,4.3913,2.1929,8.8803,5.348,13.2473
		C375.1967,239.8337,377.8144,234.9313,377.1893,230.7062z"/>
	<path fill="#FF0000" enable-background="new    " d="M386.4887,220.1908c-0.2555-1.8165-1.0591-2.9668-2.1646-3.1849
		c-0.0961-0.019-0.1895-0.0282-0.2807-0.0282c-0.9609,0-1.6447,1.0245-2.0356,2.4248c-0.4084-1.4614-1.1055-2.4093-2.1219-2.4092
		c-0.0673,0-0.136,0.0042-0.2061,0.0126c-1.0109,0.1216-1.8793,1.2253-2.1529,3.3766c-0.4922,3.8699,1.8373,7.8259,4.4808,11.6744
		C384.8192,228.2345,387.0125,223.9142,386.4887,220.1908z"/>
	<path fill="#FF0000" enable-background="new    " d="M372.3476,283.0167c-0.7323-1.7458-3.0353-2.8513-6.2036-3.061
		c-0.2754-0.0182-0.5432-0.027-0.8044-0.027c-2.7541,0-4.7136,0.9846-5.8339,2.3304c-1.1704-1.4045-3.1682-2.3156-6.0811-2.3155
		c-0.1928,0-0.3897,0.004-0.5906,0.0121c-2.8972,0.1169-5.386,1.1776-6.1701,3.2453c-1.4105,3.7194,5.2658,7.5214,12.8418,11.2202
		C367.5628,290.7475,373.8487,286.5952,372.3476,283.0167z"/>
	<path fill="#FF0000" enable-background="new    " d="M379.8313,270.7242c-0.5383-1.3412-2.2311-2.1905-4.5599-2.3516
		c-0.2025-0.014-0.3993-0.0208-0.5912-0.0208c-2.0244,0-3.4647,0.7565-4.2882,1.7904c-0.8603-1.079-2.3288-1.7789-4.4699-1.7789
		c-0.1417,0-0.2865,0.0031-0.4341,0.0093c-2.1296,0.0898-3.959,0.9047-4.5353,2.4932c-1.0368,2.8574,3.8706,5.7783,9.4394,8.6198
		C376.3142,276.6633,380.9347,273.4734,379.8313,270.7242z"/>
	<path fill="#FF0000" enable-background="new    " d="M389.0336,259.8895c-0.5016-1.2575-2.079-2.0538-4.2491-2.2048
		c-0.1887-0.0132-0.3721-0.0195-0.551-0.0195c-1.8864,0-3.2285,0.7093-3.9959,1.6786c-0.8016-1.0117-2.17-1.6679-4.1652-1.6679
		c-0.132,0-0.267,0.0029-0.4045,0.0087c-1.9844,0.0842-3.6891,0.8482-4.2261,2.3376c-0.9661,2.6791,3.6068,5.4177,8.7959,8.0819
		C385.7562,265.458,390.0617,262.4671,389.0336,259.8895z"/>
	<path fill="#FF0000" enable-background="new    " d="M362.7077,301.5605c-0.4268-1.0947-1.7691-1.7879-3.6158-1.9194
		c-0.1605-0.0114-0.3166-0.017-0.4688-0.017c-1.6052,0-2.7473,0.6174-3.4003,1.4613c-0.6822-0.8807-1.8466-1.452-3.5444-1.4519
		c-0.1124,0-0.2272,0.0025-0.3442,0.0076c-1.6886,0.0733-3.1392,0.7384-3.5962,2.0349c-0.8221,2.3322,3.0692,4.7163,7.4849,7.0356
		C359.9189,306.4081,363.5826,303.8044,362.7077,301.5605z"/>
	<path fill="#FF0000" enable-background="new    " d="M405.882,228.5956c-0.237-1.6372-0.9822-2.674-2.0075-2.8706
		c-0.0891-0.0171-0.1758-0.0254-0.2603-0.0254c-0.8912,0-1.5254,0.9234-1.8879,2.1855c-0.3787-1.3172-1.0252-2.1715-1.9679-2.1715
		c-0.0624,0-0.1261,0.0038-0.1911,0.0114c-0.9375,0.1096-1.7429,1.1044-1.9967,3.0434c-0.4564,3.488,1.704,7.0536,4.1557,10.5223
		C404.3336,235.8456,406.3677,231.9516,405.882,228.5956z"/>
	<path fill="#FF0000" enable-background="new    " d="M345.097,231.051c-0.3796-1.2156-1.5735-1.9854-3.2159-2.1314
		c-0.1428-0.0127-0.2816-0.0188-0.417-0.0188c-1.4277,0-2.4435,0.6857-3.0243,1.6228c-0.6067-0.978-1.6424-1.6124-3.1524-1.6123
		c-0.0999,0-0.2021,0.0028-0.3062,0.0084c-1.5019,0.0814-2.7921,0.82-3.1985,2.2598c-0.7312,2.5899,2.7298,5.2374,6.6571,7.8129
		C342.6166,236.4341,345.8752,233.5428,345.097,231.051z"/>
	<path fill="#FF0000" enable-background="new    " d="M325.8695,230.6834c-0.3067-2.1116-1.2712-3.4489-2.5982-3.7025
		c-0.1154-0.022-0.2275-0.0327-0.3369-0.0327c-1.1534,0-1.9742,1.191-2.4434,2.8189c-0.4902-1.6989-1.3269-2.8008-2.5469-2.8008
		c-0.0807,0-0.1632,0.0048-0.2473,0.0146c-1.2134,0.1414-2.2558,1.4244-2.5842,3.9254c-0.5907,4.4988,2.2054,9.0977,5.3784,13.5716
		C323.8655,240.0344,326.4982,235.0119,325.8695,230.6834z"/>
	<path fill="#FF0000" enable-background="new    " d="M315.5873,241.3952c-0.3671-2.0148-1.5215-3.2908-3.1095-3.5328
		c-0.1381-0.021-0.2723-0.0312-0.4032-0.0312c-1.3805,0-2.3627,1.1364-2.9243,2.6897c-0.5866-1.621-1.5881-2.6724-3.0482-2.6724
		c-0.0966,0-0.1954,0.0046-0.2961,0.014c-1.4522,0.1349-2.6997,1.3591-3.0927,3.7455c-0.707,4.2926,2.6395,8.6807,6.437,12.9496
		C313.1889,250.3176,316.3398,245.5254,315.5873,241.3952z"/>
	<path fill="#FF0000" enable-background="new    " d="M308.6543,254.558c-0.4856-1.8552-2.0126-3.0301-4.1134-3.2529
		c-0.1826-0.0194-0.3602-0.0287-0.5334-0.0287c-1.8261,0-3.1254,1.0464-3.8683,2.4766c-0.7761-1.4926-2.1007-2.4607-4.0322-2.4607
		c-0.1278,0-0.2584,0.0043-0.3916,0.0129c-1.921,0.1242-3.5713,1.2514-4.0912,3.4487c-0.9352,3.9526,3.4916,7.993,8.515,11.9237
		C305.4816,262.7735,309.6496,258.3609,308.6543,254.558z"/>
	<path fill="#FF0000" enable-background="new    " d="M337.9699,263.3831c-0.5567-1.2947-2.3075-2.1146-4.7161-2.2701
		c-0.2094-0.0135-0.413-0.0201-0.6115-0.0201c-2.0937,0-3.5834,0.7303-4.4351,1.7284c-0.8898-1.0417-2.4086-1.7173-4.623-1.7173
		c-0.1466,0-0.2963,0.003-0.449,0.009c-2.2025,0.0867-4.0945,0.8734-4.6906,2.4068c-1.0723,2.7584,4.0032,5.5782,9.7627,8.3213
		C334.3323,269.1165,339.1111,266.0371,337.9699,263.3831z"/>
	<path fill="#FF0000" enable-background="new    " d="M336.645,250.7154c-0.4103-1.1363-1.7007-1.8559-3.4759-1.9923
		c-0.1543-0.0119-0.3044-0.0176-0.4507-0.0176c-1.5432,0-2.6411,0.6409-3.2688,1.5168c-0.6558-0.9142-1.7752-1.5071-3.4073-1.5071
		c-0.108,0-0.2184,0.0026-0.3309,0.0079c-1.6233,0.0761-3.0178,0.7665-3.4572,2.1123c-0.7903,2.4208,2.9505,4.8955,7.1954,7.3029
		C333.964,255.7472,337.4861,253.0446,336.645,250.7154z"/>
	<path fill="#FF0000" enable-background="new    " d="M530.6743,343.573c-0.6551-1.9732-2.7151-3.2228-5.5491-3.4597
		c-0.2464-0.0206-0.486-0.0306-0.7195-0.0306c-2.4635,0-4.2163,1.1129-5.2185,2.6341c-1.0469-1.5875-2.834-2.6172-5.4396-2.6172
		c-0.1724,0-0.3486,0.0045-0.5283,0.0137c-2.5916,0.1321-4.8178,1.331-5.5192,3.668c-1.2617,4.2039,4.7103,8.5013,11.4872,12.6818
		C526.3942,352.3109,532.017,347.6177,530.6743,343.573z"/>
	<path fill="#FF0000" enable-background="new    " d="M242.7346,216.904c-0.7561-1.8538-3.1341-3.0278-6.4055-3.2504
		c-0.2844-0.0194-0.5609-0.0287-0.8306-0.0287c-2.8437,0-4.867,1.0456-6.0238,2.4747c-1.2085-1.4915-3.2713-2.4588-6.2791-2.4588
		c-0.1991,0-0.4025,0.0042-0.6098,0.0128c-2.9915,0.1241-5.5613,1.2505-6.3709,3.4461c-1.4564,3.9495,5.4372,7.9869,13.2599,11.9145
		C237.794,225.1133,244.2845,220.704,242.7346,216.904z"/>
	<path fill="#FF0000" enable-background="new    " d="M316.9023,18.2502c-0.3328-1.8187-1.3792-2.9704-2.8188-3.1888
		c-0.1252-0.019-0.2469-0.0282-0.3655-0.0282c-1.2514,0-2.1418,1.0258-2.6508,2.4278c-0.5318-1.4632-1.4396-2.4122-2.7632-2.4122
		c-0.0876,0-0.1771,0.0042-0.2683,0.0126c-1.3164,0.1218-2.4473,1.2268-2.8036,3.3808c-0.6409,3.8747,2.3927,7.8355,5.8351,11.6886
		C314.7282,26.3038,317.5844,21.9782,316.9023,18.2502z"/>
	<path fill="#FF0000" enable-background="new    " d="M240.969,44.1637c-0.3519-2.5185-1.4588-4.1134-2.9815-4.4158
		c-0.1324-0.0263-0.2611-0.039-0.3866-0.039c-1.3236,0-2.2654,1.4205-2.8038,3.362c-0.5625-2.0262-1.5227-3.3405-2.9227-3.3404
		c-0.0926,0-0.1873,0.0058-0.2838,0.0175c-1.3924,0.1687-2.5885,1.6988-2.9654,4.6817c-0.6779,5.3656,2.5308,10.8506,6.1719,16.1864
		C238.6694,55.3163,241.6905,49.3262,240.969,44.1637z"/>
	<path fill="#FF0000" enable-background="new    " d="M324.5588,65.2448c-0.5948-1.6695-2.4656-2.7267-5.0392-2.9272
		c-0.2237-0.0174-0.4413-0.0259-0.6534-0.0259c-2.2371,0-3.8289,0.9416-4.7389,2.2286c-0.9507-1.3432-2.5735-2.2144-4.9398-2.2143
		c-0.1566,0-0.3166,0.0038-0.4797,0.0116c-2.3534,0.1118-4.3751,1.1261-5.012,3.1034c-1.1458,3.5568,4.2774,7.1927,10.4315,10.7298
		C320.6721,72.6378,325.7782,68.667,324.5588,65.2448z"/>
	<path fill="#FF0000" enable-background="new    " d="M321.1581,49c-0.6653-1.442-2.7573-2.3552-5.6355-2.5283
		c-0.2502-0.0151-0.4935-0.0224-0.7307-0.0224c-2.5019,0-4.282,0.8133-5.2997,1.9249c-1.0632-1.1601-2.8781-1.9126-5.5243-1.9126
		c-0.1751,0-0.3541,0.0033-0.5365,0.01c-2.6319,0.0966-4.8928,0.9727-5.6051,2.6806c-1.2813,3.0722,4.7836,6.2126,11.6659,9.2678
		C316.8115,55.3856,322.5218,51.9559,321.1581,49z"/>
	<path fill="#FF0000" enable-background="new    " d="M316.3093,33.9873c-0.5432-1.2273-2.2513-2.0045-4.6013-2.1519
		c-0.2043-0.0128-0.403-0.019-0.5966-0.019c-2.0428,0-3.4962,0.6922-4.3272,1.6384c-0.8681-0.9874-2.3499-1.6279-4.5105-1.6278
		c-0.143,0-0.2891,0.0028-0.4381,0.0085c-2.1489,0.0822-3.9949,0.8279-4.5765,2.2815c-1.0462,2.6148,3.9058,5.2877,9.5251,7.888
		C312.7603,39.4222,317.4227,36.5031,316.3093,33.9873z"/>
	<path fill="#FF0000" enable-background="new    " d="M341.7479,35.5938c-0.4804-2.0374-1.9912-3.3276-4.0698-3.5723
		c-0.1807-0.0213-0.3564-0.0316-0.5277-0.0316c-1.8068,0-3.0923,1.1491-3.8273,2.7198c-0.7678-1.6392-2.0785-2.7024-3.9895-2.7023
		c-0.1265,0-0.2557,0.0047-0.3875,0.0141c-1.9007,0.1364-3.5334,1.3743-4.0478,3.7874c-0.9253,4.3407,3.4546,8.7779,8.4247,13.0945
		C338.6089,44.616,342.7327,39.7702,341.7479,35.5938z"/>
	<path fill="#FF0000" enable-background="new    " d="M387.4379,23.6306c-0.3922-1.5624-1.6255-2.5518-3.3222-2.7395
		c-0.1475-0.0163-0.2909-0.0242-0.4308-0.0242c-1.4749,0-2.5243,0.8812-3.1242,2.0857c-0.6268-1.257-1.6967-2.0723-3.2566-2.0723
		c-0.1032,0-0.2087,0.0036-0.3163,0.0108c-1.5515,0.1046-2.8843,1.0539-3.3042,2.9044c-0.7554,3.3287,2.8199,6.7314,6.8771,10.0417
		C384.8755,30.5494,388.2418,26.8333,387.4379,23.6306z"/>
	<path fill="#FF0000" enable-background="new    " d="M330.808,23.3369c-0.3312-1.6791-1.3726-2.7424-2.8053-2.944
		c-0.1245-0.0175-0.2457-0.026-0.3637-0.026c-1.2454,0-2.1315,0.947-2.6382,2.2414c-0.5293-1.3509-1.4327-2.2271-2.7499-2.227
		c-0.0872,0-0.1762,0.0038-0.2671,0.0116c-1.3101,0.1124-2.4356,1.1326-2.7902,3.1213c-0.6378,3.5773,2.3812,7.2341,5.8072,10.7915
		C328.6442,30.7724,331.4868,26.7788,330.808,23.3369z"/>
	<path fill="#FF0000" enable-background="new    " d="M292.6584,132.6211c-0.4162-2.8813-1.7252-4.706-3.5259-5.052
		c-0.1565-0.0301-0.3088-0.0447-0.4572-0.0447c-1.5653,0-2.6791,1.6251-3.3159,3.8463c-0.6652-2.3181-1.8007-3.8217-3.4564-3.8216
		c-0.1096,0-0.2216,0.0066-0.3357,0.02c-1.6467,0.193-3.0612,1.9436-3.5069,5.3561c-0.8017,6.1386,2.993,12.4138,7.299,18.5184
		C289.9388,145.3804,293.5116,138.5273,292.6584,132.6211z"/>
	<path fill="#FF0000" enable-background="new    " d="M387.0294,51.5609c-0.5201-1.1013-2.1556-1.7987-4.4057-1.931
		c-0.1956-0.0115-0.3858-0.0171-0.5712-0.0171c-1.9559,0-3.3475,0.6212-4.1432,1.4701c-0.8312-0.886-2.25-1.4607-4.3187-1.4607
		c-0.1369,0-0.2768,0.0025-0.4194,0.0076c-2.0575,0.0738-3.825,0.7429-4.3819,2.0472c-1.0017,2.3463,3.7397,4.7448,9.12,7.0781
		C383.6313,56.4377,388.0955,53.8184,387.0294,51.5609z"/>
	<path fill="#FF0000" enable-background="new    " d="M387.7399,40.0028c-0.4599-1.0764-1.9062-1.7581-3.8958-1.8873
		c-0.1729-0.0112-0.3412-0.0167-0.5051-0.0167c-1.7296,0-2.9601,0.6071-3.6637,1.4369c-0.735-0.866-1.9896-1.4277-3.819-1.4277
		c-0.121,0-0.2448,0.0025-0.3709,0.0075c-1.8194,0.0721-3.3824,0.7261-3.8748,2.0009c-0.8858,2.2933,3.3069,4.6375,8.0647,6.918
		C384.735,44.7695,388.6826,42.2093,387.7399,40.0028z"/>
	<path fill="#FF0000" enable-background="new    " d="M382.2191,63.5303c-0.5581-1.1818-2.3132-1.9302-4.7278-2.0721
		c-0.2099-0.0123-0.414-0.0183-0.613-0.0183c-2.0989,0-3.5923,0.6666-4.446,1.5776c-0.892-0.9508-2.4145-1.5675-4.6345-1.5675
		c-0.1469,0-0.2971,0.0027-0.4501,0.0082c-2.2079,0.0791-4.1047,0.7972-4.7022,2.1969c-1.075,2.5178,4.0131,5.0916,9.7868,7.5954
		C378.5726,68.7636,383.3631,65.9527,382.2191,63.5303z"/>
	<path fill="#FF0000" enable-background="new    " d="M364.9459,38.9871c-0.3649-1.3342-1.5127-2.1792-3.0916-2.3394
		c-0.1372-0.0139-0.2707-0.0207-0.4009-0.0207c-1.3725,0-2.3491,0.7525-2.9074,1.7811c-0.5833-1.0734-1.5789-1.7697-3.0306-1.7697
		c-0.0961,0-0.1942,0.0031-0.2943,0.0092c-1.4438,0.0894-2.6842,0.9-3.075,2.4802c-0.7029,2.8426,2.6243,5.7484,6.3999,8.5752
		C362.5613,44.8955,365.694,41.7221,364.9459,38.9871z"/>
	<path fill="#FF0000" enable-background="new    " d="M370.498,26.6823c-0.3058-1.6142-1.2673-2.6364-2.5902-2.8303
		c-0.115-0.0169-0.2268-0.025-0.3359-0.025c-1.1499,0-1.9681,0.9104-2.4359,2.1548c-0.4887-1.2987-1.3229-2.141-2.5391-2.141
		c-0.0805,0-0.1628,0.0037-0.2466,0.0112c-1.2097,0.1081-2.2488,1.0888-2.5762,3.0007c-0.589,3.439,2.1987,6.9546,5.362,10.3746
		C368.5002,33.8305,371.1248,29.9912,370.498,26.6823z"/>
	<path fill="#FF0000" enable-background="new    " d="M359.2467,49.931c-0.427-1.5609-1.7697-2.5495-3.6169-2.7369
		c-0.1606-0.0163-0.3167-0.0242-0.469-0.0242c-1.6057,0-2.7483,0.8804-3.4015,2.0837c-0.6824-1.2558-1.8472-2.0704-3.5456-2.0704
		c-0.1124,0-0.2273,0.0036-0.3443,0.0108c-1.6892,0.1045-3.1403,1.0529-3.5975,2.9017c-0.8224,3.3256,3.0702,6.7251,7.4874,10.0323
		C356.4569,56.8433,360.1219,53.1307,359.2467,49.931z"/>
	<path fill="#FF0000" enable-background="new    " d="M348.0031,64.6796c-0.4431-1.4898-1.8366-2.4332-3.7536-2.6121
		c-0.1667-0.0156-0.3287-0.0231-0.4867-0.0231c-1.6664,0-2.8521,0.8403-3.53,1.9887c-0.7082-1.1986-1.9171-1.976-3.6796-1.9759
		c-0.1167,0-0.2358,0.0034-0.3574,0.0103c-1.753,0.0998-3.259,1.0049-3.7334,2.7693c-0.8535,3.1739,3.1862,6.4184,7.7704,9.5747
		C345.1078,71.2767,348.9113,67.7334,348.0031,64.6796z"/>
	<path fill="#FF0000" enable-background="new    " d="M277.1689,123.6929c-0.3788-2.622-1.5699-4.2824-3.2086-4.5973
		c-0.1424-0.0274-0.2809-0.0406-0.416-0.0406c-1.4244,0-2.4379,1.4789-3.0174,3.5001c-0.6053-2.1095-1.6386-3.4777-3.1452-3.4777
		c-0.0997,0-0.2016,0.006-0.3055,0.0182c-1.4984,0.1756-2.7857,1.7686-3.1913,4.8741c-0.7295,5.5861,2.7235,11.2965,6.642,16.8516
		C274.6942,135.3038,277.9453,129.0675,277.1689,123.6929z"/>
	<path fill="#FF0000" enable-background="new    " d="M266.3317,109.673c-0.3619-2.0299-1.4999-3.3154-3.0655-3.5591
		c-0.1361-0.0212-0.2684-0.0315-0.3975-0.0315c-1.3609,0-2.3293,1.1449-2.8829,2.7097c-0.5784-1.6331-1.5656-2.6924-3.0051-2.6924
		c-0.0952,0-0.1926,0.0046-0.2918,0.0141c-1.4317,0.1359-2.6615,1.3692-3.049,3.7734c-0.697,4.3247,2.6021,8.7455,6.3459,13.0463
		C263.9673,118.662,267.0735,113.834,266.3317,109.673z"/>
	<path fill="#FF0000" enable-background="new    " d="M259.3167,93.2609c-0.4079-1.7914-1.6907-2.9258-3.4555-3.1409
		c-0.1534-0.0187-0.3026-0.0278-0.448-0.0278c-1.5341,0-2.6256,1.0104-3.2496,2.3913c-0.6519-1.4412-1.7648-2.376-3.3873-2.376
		c-0.1074,0-0.2171,0.0041-0.329,0.0124c-1.6138,0.12-3.0001,1.2084-3.4369,3.33c-0.7857,3.8165,2.9332,7.7179,7.1532,11.5133
		C256.6514,101.1937,260.1528,96.933,259.3167,93.2609z"/>
	<path fill="#FF0000" enable-background="new    " d="M255.4088,75.1c-0.4304-1.6923-1.7838-2.764-3.6456-2.9672
		c-0.1618-0.0177-0.3192-0.0262-0.4727-0.0262c-1.6185,0-2.7701,0.9545-3.4284,2.2591c-0.6878-1.3615-1.8619-2.2446-3.5737-2.2446
		c-0.1133,0-0.229,0.0039-0.3471,0.0117c-1.7026,0.1133-3.1652,1.1415-3.626,3.1459c-0.8289,3.6055,3.0945,7.2911,7.5468,10.8766
		C252.5968,82.5941,256.2909,78.569,255.4088,75.1z"/>
	<path fill="#FF0000" enable-background="new    " d="M289.9213,47.9141c-0.2693-1.9267-1.116-3.1469-2.2809-3.3782
		c-0.1013-0.0201-0.1997-0.0299-0.2957-0.0299c-1.0126,0-1.7331,1.0867-2.145,2.572c-0.4303-1.5501-1.1649-2.5556-2.2359-2.5555
		c-0.0709,0-0.1433,0.0044-0.2171,0.0134c-1.0652,0.129-1.9803,1.2997-2.2686,3.5816c-0.5186,4.1049,1.9361,8.301,4.7217,12.3831
		C288.162,56.4462,290.4732,51.8636,289.9213,47.9141z"/>
	<path fill="#FF0000" enable-background="new    " d="M322.7756,98.5146c-0.4847-1.8136-2.0091-2.9621-4.1062-3.1799
		c-0.1823-0.0189-0.3596-0.0281-0.5324-0.0281c-1.8229,0-3.12,1.0229-3.8615,2.421c-0.7747-1.4591-2.0971-2.4055-4.0252-2.4055
		c-0.1276,0-0.258,0.0042-0.3909,0.0126c-1.9177,0.1215-3.565,1.2234-4.084,3.3713c-0.9336,3.8639,3.4855,7.8137,8.5002,11.6561
		C319.6085,106.5458,323.7692,102.2322,322.7756,98.5146z"/>
	<path fill="#FF0000" enable-background="new    " d="M314.2165,88.1022c-0.4641-1.7363-1.9235-2.8358-3.9312-3.0443
		c-0.1745-0.0181-0.3442-0.0269-0.5097-0.0269c-1.7453,0-2.987,0.9793-3.697,2.3178c-0.7417-1.3969-2.0077-2.303-3.8537-2.3029
		c-0.1222,0-0.247,0.004-0.3742,0.012c-1.836,0.1163-3.4131,1.1712-3.91,3.2276c-0.8939,3.6991,3.3369,7.4805,8.1379,11.1592
		C311.1843,95.791,315.1677,91.6613,314.2165,88.1022z"/>
	<path fill="#FF0000" enable-background="new    " d="M304.2263,78.2214c-0.3607-1.3495-1.495-2.2041-3.0555-2.3662
		c-0.1357-0.0141-0.2675-0.0209-0.3962-0.0209c-1.3564,0-2.3216,0.7612-2.8734,1.8015c-0.5764-1.0857-1.5604-1.79-2.9951-1.7899
		c-0.0949,0-0.192,0.0031-0.2909,0.0094c-1.427,0.0904-2.6528,0.9103-3.039,2.5086c-0.6947,2.8751,2.5936,5.8142,6.325,8.6734
		C301.8696,84.1974,304.9656,80.9877,304.2263,78.2214z"/>
	<path fill="#FF0000" enable-background="new    " d="M300.3205,66.895c-0.3607-1.3495-1.495-2.2041-3.0555-2.3662
		c-0.1357-0.0141-0.2675-0.0209-0.3962-0.0209c-1.3565,0-2.3216,0.7612-2.8734,1.8015c-0.5764-1.0857-1.5605-1.79-2.9951-1.7899
		c-0.095,0-0.192,0.0031-0.2909,0.0094c-1.427,0.0904-2.6528,0.9103-3.039,2.5086c-0.6947,2.8751,2.5936,5.8142,6.325,8.6734
		C297.9638,72.871,301.0598,69.6613,300.3205,66.895z"/>
	<path fill="#FF0000" enable-background="new    " d="M298.2622,112.5319c-0.5822-1.2612-2.413-2.0599-4.9317-2.2114
		c-0.2189-0.0132-0.4319-0.0195-0.6395-0.0195c-2.1894,0-3.7472,0.7114-4.6378,1.6836c-0.9305-1.0147-2.5187-1.6729-4.8344-1.6728
		c-0.1532,0-0.3098,0.0029-0.4695,0.0087c-2.3032,0.0845-4.2818,0.8507-4.9051,2.3445c-1.1213,2.687,4.1862,5.4338,10.209,8.106
		C294.4584,118.117,299.4556,115.1172,298.2622,112.5319z"/>
	<path fill="#FF0000" enable-background="new    " d="M285.049,82.206c-0.5408-1.1808-2.2416-1.9285-4.5815-2.0703
		c-0.2034-0.0123-0.4012-0.0183-0.5941-0.0183c-2.0339,0-3.4811,0.666-4.3085,1.5762c-0.8643-0.95-2.3398-1.5661-4.4911-1.5661
		c-0.1424,0-0.2878,0.0027-0.4362,0.0082c-2.1396,0.0791-3.9777,0.7965-4.5567,2.195c-1.0417,2.5156,3.8889,5.0872,9.4839,7.5889
		C281.5152,87.4348,286.1575,84.6263,285.049,82.206z"/>
	<path fill="#FF0000" enable-background="new    " d="M290.0934,98.0809c-0.5615-1.2612-2.3273-2.0599-4.7566-2.2114
		c-0.2112-0.0132-0.4165-0.0195-0.6168-0.0195c-2.1117,0-3.6141,0.7114-4.4731,1.6836c-0.8974-1.0147-2.4292-1.6729-4.6627-1.6728
		c-0.1478,0-0.2988,0.0029-0.4528,0.0087c-2.2214,0.0845-4.1297,0.8508-4.7309,2.3445c-1.0815,2.687,4.0375,5.4338,9.8464,8.106
		C286.4247,103.666,291.2444,100.6662,290.0934,98.0809z"/>
	<path fill="#FF0000" enable-background="new    " d="M282.4625,67.1172c-0.4811-1.3279-1.9941-2.1687-4.0756-2.3282
		c-0.1809-0.0139-0.3569-0.0206-0.5284-0.0206c-1.8094,0-3.0968,0.7489-3.8328,1.7726c-0.7689-1.0683-2.0815-1.7612-3.9952-1.7612
		c-0.1266,0-0.2561,0.003-0.388,0.0092c-1.9034,0.0889-3.5385,0.8957-4.0536,2.4684c-0.9267,2.829,3.4595,5.7209,8.4368,8.5342
		C279.3189,72.9973,283.4487,69.8391,282.4625,67.1172z"/>
	<path fill="#FF0000" enable-background="new    " d="M421.7093,272.6234c-0.4593-1.7697-1.9037-2.8905-3.8908-3.103
		c-0.1727-0.0185-0.3407-0.0274-0.5045-0.0274c-1.7273,0-2.9563,0.9982-3.659,2.3625c-0.734-1.4238-1.9871-2.3474-3.814-2.3473
		c-0.1209,0-0.2444,0.0041-0.3704,0.0123c-1.8171,0.1185-3.378,1.1938-3.8698,3.2899c-0.8846,3.7705,3.3026,7.6248,8.0543,11.3744
		C418.7083,280.4605,422.6507,276.2512,421.7093,272.6234z"/>
	<path fill="#FF0000" enable-background="new    " d="M411.7011,245.0655c-0.3456-1.4085-1.4324-2.3005-2.9275-2.4697
		c-0.13-0.0147-0.2564-0.0218-0.3796-0.0218c-1.2997,0-2.2244,0.7945-2.7531,1.8803c-0.5523-1.1332-1.4951-1.8683-2.8697-1.8682
		c-0.091,0-0.184,0.0032-0.2787,0.0098c-1.3672,0.0943-2.5417,0.9501-2.9117,2.6184c-0.6656,3.0009,2.485,6.0685,6.0602,9.0528
		C409.4431,251.3029,412.4095,247.9528,411.7011,245.0655z"/>
	<path fill="#FF0000" enable-background="new    " d="M414.8106,258.1967c-0.3766-1.5283-1.5609-2.4961-3.1902-2.6796
		c-0.1416-0.016-0.2794-0.0237-0.4137-0.0237c-1.4163,0-2.424,0.862-3.0001,2.0401c-0.6019-1.2296-1.6293-2.0271-3.1273-2.027
		c-0.0991,0-0.2004,0.0035-0.3037,0.0106c-1.4899,0.1023-2.7697,1.0309-3.173,2.8409c-0.7253,3.256,2.7079,6.5844,6.6039,9.8224
		C412.3499,264.9644,415.5825,261.3294,414.8106,258.1967z"/>
	<path fill="#FF0000" enable-background="new    " d="M365.2578,211.0168c-0.6882-2.0251-2.8527-3.3075-5.8304-3.5506
		c-0.2589-0.0212-0.5106-0.0314-0.756-0.0314c-2.5884,0-4.4301,1.1422-5.483,2.7033c-1.1-1.6292-2.9776-2.686-5.7153-2.6859
		c-0.1812,0-0.3663,0.0046-0.5551,0.014c-2.7229,0.1356-5.062,1.366-5.7989,3.7644c-1.3257,4.3144,4.949,8.7247,12.0693,13.0151
		C360.7608,219.9844,366.6686,215.1679,365.2578,211.0168z"/>
	<path fill="#FF0000" enable-background="new    " d="M393.7351,245.4561c-0.3456-1.4086-1.4324-2.3006-2.9276-2.4697
		c-0.13-0.0147-0.2563-0.0218-0.3796-0.0218c-1.2997,0-2.2244,0.7944-2.7531,1.8803c-0.5523-1.1332-1.4951-1.8683-2.8698-1.8682
		c-0.091,0-0.184,0.0032-0.2787,0.0098c-1.3672,0.0943-2.5417,0.9501-2.9118,2.6184c-0.6656,3.0009,2.485,6.0685,6.0603,9.0528
		C391.477,251.6936,394.4435,248.3434,393.7351,245.4561z"/>
	<path fill="#FF0000" enable-background="new    " d="M396.8964,288.1613c-0.6048-1.3643-2.507-2.2282-5.1238-2.3921
		c-0.2275-0.0143-0.4487-0.0211-0.6644-0.0211c-2.2747,0-3.8932,0.7695-4.8185,1.8212c-0.9667-1.0976-2.6168-1.8096-5.0227-1.8095
		c-0.1592,0-0.3219,0.0031-0.4878,0.0095c-2.3929,0.0913-4.4485,0.9203-5.0962,2.5361c-1.165,2.9066,4.3493,5.8778,10.6067,8.7683
		C392.9444,294.2028,398.1362,290.9579,396.8964,288.1613z"/>
	<path fill="#FF0000" enable-background="new    " d="M395.2396,272.9775c-0.4191-0.8814-1.7371-1.4396-3.5503-1.5455
		c-0.1576-0.0092-0.3109-0.0136-0.4603-0.0136c-1.5761,0-2.6976,0.4971-3.3387,1.1766c-0.6698-0.7092-1.8132-1.1691-3.4803-1.1691
		c-0.1103,0-0.2231,0.002-0.338,0.0061c-1.6581,0.0591-3.0824,0.5946-3.5311,1.6385c-0.8072,1.8779,3.0136,3.7975,7.3494,5.665
		C392.5013,276.8808,396.0987,274.7843,395.2396,272.9775z"/>
	<path fill="#FF0000" enable-background="new    " d="M352.2305,325.1945c-0.4669-1.0588-1.9351-1.7293-3.955-1.8565
		c-0.1756-0.011-0.3463-0.0164-0.5128-0.0164c-1.7558,0-3.0051,0.5972-3.7194,1.4134c-0.7462-0.8519-2.0199-1.4044-3.877-1.4044
		c-0.1229,0-0.2485,0.0024-0.3765,0.0073c-1.8471,0.0709-3.4338,0.7142-3.9337,1.9683c-0.8993,2.2558,3.3572,4.5618,8.1873,6.8051
		C349.1799,329.8832,353.1875,327.3648,352.2305,325.1945z"/>
	<path fill="#FF0000" enable-background="new    " d="M349.7425,338.9188c-0.4117-1.4172-1.7063-2.3146-3.4873-2.4848
		c-0.1548-0.0148-0.3054-0.022-0.4522-0.022c-1.5482,0-2.6497,0.7993-3.2795,1.8918c-0.6579-1.1402-1.781-1.8797-3.4185-1.8797
		c-0.1084,0-0.2191,0.0033-0.332,0.0098c-1.6286,0.0949-3.0277,0.956-3.4685,2.6344c-0.7929,3.0193,2.9601,6.1057,7.2189,9.1083
		C347.0527,345.1945,350.5863,341.8238,349.7425,338.9188z"/>
	<path fill="#FF0000" enable-background="new    " d="M357.6983,313.4781c-0.4669-1.0588-1.9351-1.7293-3.955-1.8565
		c-0.1756-0.011-0.3463-0.0164-0.5128-0.0164c-1.7558,0-3.0051,0.5972-3.7194,1.4134c-0.7462-0.8519-2.0199-1.4044-3.877-1.4044
		c-0.1229,0-0.2485,0.0024-0.3765,0.0073c-1.8471,0.0709-3.4338,0.7142-3.9337,1.9683c-0.8993,2.2558,3.3572,4.5618,8.1873,6.8051
		C354.6477,318.1668,358.6553,315.6484,357.6983,313.4781z"/>
	<path fill="#FF0000" enable-background="new    " d="M468.4153,284.1117c-0.5781-2.7111-2.3963-4.428-4.8976-4.7536
		c-0.2174-0.0283-0.4289-0.042-0.635-0.042c-2.1743,0-3.7213,1.5291-4.6058,3.6191c-0.924-2.1812-2.5013-3.596-4.801-3.5959
		c-0.1522,0-0.3077,0.0062-0.4663,0.0188c-2.2873,0.1816-4.2522,1.8288-4.8712,5.0398
		c-1.1136,5.7761,4.1573,11.6806,10.1385,17.4246C464.6378,296.1174,469.6004,289.6691,468.4153,284.1117z"/>
	<path fill="#FF0000" enable-background="new    " d="M226.4806,119.2286c-0.3056-2.1658-1.2668-3.5374-2.5891-3.7975
		c-0.1149-0.0226-0.2267-0.0336-0.3357-0.0336c-1.1494,0-1.9673,1.2216-2.4349,2.8912c-0.4885-1.7425-1.3223-2.8727-2.5381-2.8726
		c-0.0804,0-0.1627,0.005-0.2465,0.015c-1.2092,0.145-2.2479,1.4609-2.5752,4.0261c-0.5887,4.6143,2.1978,9.3311,5.3597,13.9198
		C224.4836,128.8195,227.1071,123.6682,226.4806,119.2286z"/>
	<path fill="#FF0000" enable-background="new    " d="M237.1103,102.2137c-0.539-1.6403-2.2342-2.679-4.5663-2.876
		c-0.2027-0.0171-0.3999-0.0254-0.5921-0.0254c-2.0272,0-3.4696,0.9251-4.2942,2.1896c-0.8615-1.3197-2.332-2.1756-4.4762-2.1756
		c-0.1419,0-0.2869,0.0038-0.4347,0.0114c-2.1325,0.1098-3.9645,1.1064-4.5416,3.0491c-1.0382,3.4946,3.876,7.0669,9.4525,10.5421
		C233.5883,109.4773,238.2152,105.576,237.1103,102.2137z"/>
	<path fill="#FF0000" enable-background="new    " d="M234.0784,85.2424c-0.4927-1.4919-2.0422-2.4367-4.1739-2.6158
		c-0.1853-0.0156-0.3655-0.0231-0.5412-0.0231c-1.853,0-3.1714,0.8415-3.9252,1.9915c-0.7875-1.2003-2.1317-1.9788-4.0916-1.9788
		c-0.1297,0-0.2623,0.0034-0.3974,0.0103c-1.9493,0.0999-3.6238,1.0063-4.1514,2.7733c-0.949,3.1784,3.543,6.4276,8.6404,9.5884
		C230.859,91.8489,235.0884,88.3005,234.0784,85.2424z"/>
	<path fill="#FF0000" enable-background="new    " d="M232.5502,68.7851c-0.5348-1.3773-2.2164-2.2496-4.53-2.415
		c-0.2011-0.0144-0.3967-0.0213-0.5874-0.0213c-2.0111,0-3.442,0.7769-4.2601,1.8386c-0.8546-1.1081-2.3135-1.8269-4.4406-1.8268
		c-0.1408,0-0.2846,0.0032-0.4313,0.0096c-2.1156,0.0922-3.933,0.9291-4.5055,2.5604c-1.03,2.9344,3.8452,5.9341,9.3774,8.8523
		C229.0562,74.8843,233.6463,71.6084,232.5502,68.7851z"/>
	<path fill="#FF0000" enable-background="new    " d="M182.0206,94.6704c-0.4489-1.6235-1.8604-2.6516-3.8023-2.8465
		c-0.1688-0.017-0.333-0.0252-0.493-0.0252c-1.688,0-2.8891,0.9157-3.5758,2.1672c-0.7174-1.3062-1.9419-2.1533-3.7273-2.1533
		c-0.1181,0-0.2389,0.0037-0.362,0.0113c-1.7758,0.1087-3.3012,1.0951-3.7818,3.0179c-0.8645,3.4588,3.2275,6.9945,7.8711,10.4342
		C179.0878,101.8596,182.9406,97.9982,182.0206,94.6704z"/>
	<path fill="#FF0000" enable-background="new    " d="M110.9675,116.6713c-0.27-1.9975-1.1189-3.2625-2.2869-3.5024
		c-0.1015-0.0209-0.2003-0.031-0.2965-0.031c-1.0153,0-1.7377,1.1267-2.1507,2.6665c-0.4315-1.6071-1.168-2.6495-2.2418-2.6494
		c-0.0711,0-0.1437,0.0046-0.2177,0.0138c-1.068,0.1338-1.9855,1.3474-2.2746,3.7132c-0.52,4.2557,1.9412,8.6061,4.7341,12.8382
		C109.2036,125.5169,111.5209,120.7659,110.9675,116.6713z"/>
	<path fill="#FF0000" enable-background="new    " d="M163.6279,128.2489c-0.3113-2.3034-1.2903-3.762-2.6371-4.0386
		c-0.1171-0.0241-0.2309-0.0357-0.3419-0.0357c-1.1708,0-2.0038,1.2992-2.48,3.0748c-0.4975-1.8532-1.3468-3.0551-2.5851-3.0551
		c-0.0819,0-0.1657,0.0053-0.2511,0.016c-1.2316,0.1543-2.2896,1.5537-2.6229,4.2818c-0.5996,4.9073,2.2385,9.9237,5.4591,14.8038
		C161.5938,138.4489,164.266,132.9704,163.6279,128.2489z"/>
	<path fill="#FF0000" enable-background="new    " d="M180.0316,213.3923c-0.3113-2.3034-1.2903-3.762-2.6371-4.0386
		c-0.1171-0.024-0.2309-0.0357-0.3419-0.0357c-1.1707,0-2.0037,1.2991-2.48,3.0748c-0.4975-1.8531-1.3468-3.0551-2.5851-3.0551
		c-0.0819,0-0.1657,0.0053-0.2511,0.016c-1.2316,0.1543-2.2896,1.5537-2.6229,4.2818c-0.5996,4.9073,2.2384,9.9238,5.459,14.8039
		C177.9975,223.5923,180.6697,218.1138,180.0316,213.3923z"/>
	<path fill="#FF0000" enable-background="new    " d="M213.7505,148.2478c-0.3188-2.2595-1.3215-3.6904-2.7009-3.9617
		c-0.1199-0.0236-0.2365-0.035-0.3502-0.035c-1.1991,0-2.0522,1.2744-2.54,3.0162c-0.5096-1.8179-1.3794-2.9969-2.6476-2.9969
		c-0.0839,0-0.1697,0.0052-0.2571,0.0157c-1.2614,0.1513-2.3449,1.5241-2.6863,4.2002c-0.6141,4.8138,2.2926,9.7347,5.591,14.5218
		C211.6673,158.2535,214.404,152.8794,213.7505,148.2478z"/>
	<path fill="#FF0000" enable-background="new    " d="M197.6714,282.8909c-0.7583-1.6718-3.1428-2.7304-6.4234-2.9312
		c-0.2852-0.0175-0.5625-0.0259-0.8329-0.0259c-2.8517,0-4.8806,0.9429-6.0407,2.2317c-1.2119-1.345-3.2805-2.2174-6.2966-2.2173
		c-0.1996,0-0.4036,0.0038-0.6115,0.0116c-2.9998,0.112-5.5769,1.1277-6.3887,3.1077c-1.4605,3.5617,5.4524,7.2026,13.2969,10.7445
		C192.717,290.294,199.2257,286.3178,197.6714,282.8909z"/>
	<path fill="#FF0000" enable-background="new    " d="M196.2922,250.8952c-0.4681-1.0559-1.94-1.7245-3.965-1.8513
		c-0.176-0.011-0.3472-0.0164-0.5141-0.0164c-1.7602,0-3.0127,0.5956-3.7287,1.4095c-0.748-0.8495-2.0249-1.4005-3.8867-1.4005
		c-0.1232,0-0.2491,0.0024-0.3775,0.0073c-1.8517,0.0707-3.4424,0.7122-3.9436,1.9628c-0.9015,2.2496,3.3656,4.5491,8.2078,6.7862
		C193.234,255.571,197.2516,253.0596,196.2922,250.8952z"/>
	<path fill="#FF0000" enable-background="new    " d="M198.6053,266.5286c-0.5838-1.3163-2.4199-2.1498-4.9457-2.3079
		c-0.2196-0.0138-0.4331-0.0204-0.6413-0.0204c-2.1957,0-3.7579,0.7424-4.6511,1.7571c-0.9331-1.059-2.5258-1.7458-4.8481-1.7458
		c-0.1537,0-0.3107,0.003-0.4708,0.0091c-2.3098,0.0881-4.2939,0.8879-4.9191,2.4468c-1.1245,2.8043,4.1981,5.6709,10.2381,8.4597
		C194.7906,272.3574,199.802,269.2267,198.6053,266.5286z"/>
	<path fill="#FF0000" enable-background="new    " d="M194.1455,236.9814c-0.4117-1.1979-1.7064-1.9565-3.4875-2.1004
		c-0.1548-0.0125-0.3054-0.0186-0.4522-0.0186c-1.5483,0-2.6499,0.6757-3.2797,1.5991c-0.658-0.9638-1.7811-1.5889-3.4187-1.5889
		c-0.1084,0-0.2191,0.0027-0.332,0.0083c-1.6287,0.0802-3.0279,0.808-3.4687,2.2268c-0.793,2.5522,2.9603,5.1611,7.2194,7.6991
		C191.4556,242.2861,194.9894,239.4369,194.1455,236.9814z"/>
	<path fill="#FF0000" enable-background="new    " d="M328.9021,317.2711c-0.3997-1.2281-1.6569-2.0059-3.3863-2.1534
		c-0.1503-0.0128-0.2965-0.019-0.4391-0.019c-1.5034,0-2.573,0.6927-3.1845,1.6395c-0.6389-0.9881-1.7294-1.629-3.3195-1.629
		c-0.1052,0-0.2128,0.0028-0.3224,0.0085c-1.5815,0.0822-2.94,0.8284-3.368,2.283c-0.77,2.6166,2.8744,5.2914,7.0099,7.8934
		C326.2902,322.7098,329.7215,319.7887,328.9021,317.2711z"/>
	<path fill="#FF0000" enable-background="new    " d="M324.2067,329.8665c-0.4807-1.6053-1.9922-2.6219-4.0716-2.8146
		c-0.1808-0.0168-0.3565-0.0249-0.5279-0.0249c-1.8076,0-3.0937,0.9054-3.829,2.1429c-0.7682-1.2915-2.0794-2.1292-3.9912-2.1292
		c-0.1265,0-0.2558,0.0037-0.3876,0.0111c-1.9015,0.1075-3.535,1.0828-4.0496,2.9841c-0.9258,3.42,3.4561,6.9161,8.4285,10.3172
		C321.0663,336.9752,325.1919,333.1571,324.2067,329.8665z"/>
	<path fill="#FF0000" enable-background="new    " d="M334.1938,305.654c-0.3024-1.6347-1.2533-2.67-2.5615-2.8663
		c-0.1137-0.0171-0.2243-0.0253-0.3321-0.0253c-1.1372,0-1.9463,0.922-2.4089,2.1823c-0.4833-1.3152-1.3082-2.1683-2.511-2.1682
		c-0.0796,0-0.1609,0.0038-0.2439,0.0113c-1.1963,0.1095-2.2239,1.1027-2.5477,3.0389c-0.5824,3.4828,2.1743,7.0431,5.3025,10.5066
		C332.2181,312.8931,334.8136,309.0049,334.1938,305.654z"/>
	<path fill="#FF0000" enable-background="new    " d="M325.7461,346.1123c-0.6823-1.6972-2.8279-2.772-5.7797-2.9758
		c-0.2566-0.0177-0.5061-0.0263-0.7494-0.0263c-2.5659,0-4.3915,0.9572-5.4353,2.2656c-1.0904-1.3654-2.9518-2.2511-5.6656-2.2511
		c-0.1796,0-0.3631,0.0039-0.5502,0.0118c-2.6992,0.1136-5.018,1.1448-5.7485,3.1549c-1.3141,3.6158,4.906,7.3121,11.9644,10.9079
		C321.2882,353.628,327.1447,349.5913,325.7461,346.1123z"/>
	<path fill="#FF0000" enable-background="new    " d="M344.0887,296.2821c-0.2648-1.8611-1.0974-3.0397-2.2429-3.2632
		c-0.0996-0.0194-0.1964-0.0288-0.2908-0.0288c-0.9957,0-1.7042,1.0497-2.1092,2.4845c-0.4231-1.4974-1.1454-2.4686-2.1986-2.4685
		c-0.0697,0-0.1409,0.0042-0.2135,0.0129c-1.0475,0.1246-1.9473,1.2554-2.2307,3.4597c-0.5099,3.9651,1.9038,8.0184,4.6429,11.9616
		C342.3588,304.5238,344.6314,300.0971,344.0887,296.2821z"/>
	<path fill="#FF0000" enable-background="new    " d="M305.7951,272.1616c-0.6364-1.6115-2.6376-2.632-5.3908-2.8255
		c-0.2393-0.0168-0.472-0.025-0.699-0.025c-2.3932,0-4.0961,0.9089-5.0696,2.1512c-1.017-1.2965-2.7531-2.1374-5.2844-2.1374
		c-0.1675,0-0.3387,0.0037-0.5132,0.0112c-2.5176,0.1079-4.6804,1.087-5.3618,2.9956c-1.2257,3.4332,4.5759,6.9428,11.1594,10.357
		C301.6371,279.2977,307.0995,275.4649,305.7951,272.1616z"/>
	<path fill="#FF0000" enable-background="new    " d="M399.2341,303.3066c-0.7608-1.6422-3.1536-2.6822-6.4454-2.8794
		c-0.2862-0.0172-0.5644-0.0255-0.8358-0.0255c-2.8615,0-4.8974,0.9262-6.0614,2.1922c-1.216-1.3212-3.2917-2.1782-6.3183-2.1781
		c-0.2003,0-0.4049,0.0038-0.6136,0.0114c-3.0102,0.11-5.596,1.1077-6.4107,3.0527c-1.4655,3.4987,5.4711,7.0753,13.3426,10.5546
		C394.2627,310.5788,400.7937,306.6729,399.2341,303.3066z"/>
	<path fill="#FF0000" enable-background="new    " d="M139.2478,174.8755c-0.6498-1.8046-2.6934-2.9475-5.5048-3.1642
		c-0.2444-0.0189-0.4821-0.028-0.7138-0.028c-2.4439,0-4.1827,1.0179-5.1769,2.409c-1.0386-1.4519-2.8114-2.3936-5.3962-2.3936
		c-0.1711,0-0.3459,0.0041-0.5241,0.0125c-2.5709,0.1208-4.7794,1.2173-5.4752,3.3547c-1.2516,3.8448,4.6727,7.775,11.3955,11.5985
		C135.0019,182.8669,140.5798,178.5747,139.2478,174.8755z"/>
	<path fill="#FF0000" enable-background="new    " d="M132.0456,159.6302c-0.5429-1.5078-2.2504-2.4627-4.5994-2.6437
		c-0.2042-0.0157-0.4028-0.0234-0.5964-0.0234c-2.0419,0-3.4947,0.8504-4.3254,2.0128c-0.8677-1.2131-2.3489-1.9999-4.5086-1.9999
		c-0.1429,0-0.289,0.0035-0.4379,0.0105c-2.148,0.101-3.9932,1.0171-4.5746,2.8029c-1.0458,3.2124,3.9041,6.4962,9.5211,9.6908
		C128.498,166.3072,133.1585,162.7209,132.0456,159.6302z"/>
	<path fill="#FF0000" enable-background="new    " d="M127.984,146.0103c-0.5047-1.4016-2.0919-2.2892-4.2754-2.4575
		c-0.1898-0.0146-0.3744-0.0217-0.5544-0.0217c-1.8981,0-3.2486,0.7906-4.0207,1.871c-0.8066-1.1277-2.1835-1.8591-4.1911-1.859
		c-0.1329,0-0.2686,0.0032-0.407,0.0097c-1.9967,0.0939-3.712,0.9454-4.2524,2.6055c-0.9721,2.9861,3.6291,6.0387,8.8505,9.0083
		C124.6863,152.2171,129.0185,148.8834,127.984,146.0103z"/>
	<path fill="#FF0000" enable-background="new    " d="M124.3846,134.4656c-0.422-1.172-1.7491-1.9141-3.5748-2.0548
		c-0.1587-0.0123-0.313-0.0182-0.4635-0.0182c-1.587,0-2.7162,0.661-3.3618,1.5645c-0.6744-0.9429-1.8257-1.5544-3.5043-1.5544
		c-0.1111,0-0.2246,0.0027-0.3403,0.0081c-1.6695,0.0785-3.1037,0.7905-3.5555,2.1786c-0.8128,2.4968,3.0344,5.0492,7.4001,7.5322
		C121.6273,139.6553,125.2496,136.8679,124.3846,134.4656z"/>
	<path fill="#FF0000" enable-background="new    " d="M154.0406,145.6116c-0.3649-1.3342-1.5127-2.1791-3.0916-2.3393
		c-0.1373-0.0139-0.2707-0.0207-0.4009-0.0207c-1.3725,0-2.3491,0.7525-2.9074,1.7811c-0.5833-1.0734-1.5789-1.7697-3.0306-1.7696
		c-0.0961,0-0.1942,0.0031-0.2943,0.0092c-1.4438,0.0894-2.6842,0.9-3.075,2.4802c-0.7029,2.8425,2.6243,5.7482,6.3999,8.575
		C151.656,151.5198,154.7887,148.3465,154.0406,145.6116z"/>
	<path fill="#FF0000" enable-background="new    " d="M178.0641,124.7061c-0.2672-1.8462-1.1076-3.0154-2.2637-3.2371
		c-0.1005-0.0193-0.1982-0.0286-0.2935-0.0286c-1.005,0-1.72,1.0413-2.1289,2.4646c-0.4271-1.4854-1.1561-2.4488-2.2191-2.4488
		c-0.0703,0-0.1422,0.0042-0.2155,0.0128c-1.0572,0.1236-1.9654,1.2454-2.2515,3.432c-0.5147,3.9334,1.9215,7.9543,4.6861,11.8659
		C176.318,132.8819,178.6118,128.4906,178.0641,124.7061z"/>
	<path fill="#FF0000" enable-background="new    " d="M149.5132,157.7271c-0.427-1.561-1.7697-2.5495-3.6169-2.7369
		c-0.1606-0.0163-0.3167-0.0242-0.469-0.0242c-1.6057,0-2.7482,0.8804-3.4014,2.0837c-0.6824-1.2558-1.8472-2.0704-3.5456-2.0704
		c-0.1124,0-0.2272,0.0036-0.3443,0.0108c-1.6892,0.1045-3.1403,1.0529-3.5974,2.9017c-0.8224,3.3256,3.0702,6.7252,7.4874,10.0323
		C146.7234,164.6395,150.3884,160.9268,149.5132,157.7271z"/>
	<path fill="#FF0000" enable-background="new    " d="M204.9928,179.6134c-0.5042-1.7466-2.09-2.8527-4.2715-3.0625
		c-0.1896-0.0182-0.374-0.0271-0.5538-0.0271c-1.8963,0-3.2456,0.9851-4.017,2.3316c-0.8059-1.4052-2.1815-2.3167-4.1872-2.3166
		c-0.1327,0-0.2684,0.004-0.4066,0.0121c-1.9949,0.117-3.7085,1.1782-4.2484,3.2468c-0.9712,3.7212,3.6258,7.5251,8.8423,11.2256
		C201.6981,187.348,206.0263,183.1937,204.9928,179.6134z"/>
	<path fill="#FF0000" enable-background="new    " d="M198.2593,167.1463c-0.4827-1.6722-2.0009-2.7311-4.0894-2.9319
		c-0.1816-0.0175-0.3581-0.0259-0.5303-0.0259c-1.8155,0-3.1072,0.9431-3.8457,2.2322c-0.7715-1.3453-2.0885-2.2179-4.0087-2.2179
		c-0.1271,0-0.2569,0.0038-0.3893,0.0116c-1.9098,0.112-3.5505,1.1279-4.0673,3.1084c-0.9298,3.5625,3.4712,7.2043,8.4654,10.7471
		C195.1051,174.5511,199.2488,170.5739,198.2593,167.1463z"/>
	<path fill="#FF0000" enable-background="new    " d="M192.415,153.6046c-0.4449-1.5412-1.8441-2.5172-3.769-2.7022
		c-0.1673-0.0161-0.33-0.0239-0.4887-0.0239c-1.6733,0-2.8638,0.8693-3.5445,2.0573c-0.7111-1.2399-1.9249-2.0442-3.6947-2.0441
		c-0.1171,0-0.2368,0.0035-0.3588,0.0107c-1.7602,0.1032-3.2723,1.0396-3.7487,2.8649c-0.857,3.2835,3.1993,6.64,7.8022,9.9052
		C189.5079,160.4294,193.327,156.7637,192.415,153.6046z"/>
	<path fill="#FF0000" enable-background="new    " d="M187.231,140.9107c-0.3752-1.2997-1.5552-2.1227-3.1785-2.2788
		c-0.1411-0.0136-0.2783-0.0201-0.4121-0.0201c-1.4111,0-2.4151,0.733-2.9891,1.735c-0.5997-1.0457-1.6233-1.7239-3.1158-1.7238
		c-0.0988,0-0.1997,0.003-0.3026,0.009c-1.4844,0.0871-2.7596,0.8767-3.1613,2.416c-0.7227,2.769,2.698,5.5995,6.5797,8.3531
		C184.7794,146.6661,188.0001,143.5748,187.231,140.9107z"/>
	<path fill="#FF0000" enable-background="new    " d="M239.9416,199.2103c-0.568-1.4595-2.3542-2.3837-4.8115-2.559
		c-0.2136-0.0152-0.4213-0.0226-0.6239-0.0226c-2.136,0-3.6559,0.8232-4.5248,1.9483c-0.9077-1.1742-2.4573-1.9358-4.7165-1.9358
		c-0.1495,0-0.3023,0.0033-0.4581,0.0101c-2.2471,0.0977-4.1774,0.9845-4.7855,2.7131c-1.094,3.1094,4.0841,6.288,9.9601,9.3802
		C236.2305,205.6733,241.1058,202.202,239.9416,199.2103z"/>
	<path fill="#FF0000" enable-background="new    " d="M231.8303,173.7734c-0.4297-1.1525-1.7811-1.8823-3.6401-2.0206
		c-0.1616-0.012-0.3188-0.0179-0.472-0.0179c-1.616,0-2.7659,0.65-3.4233,1.5384c-0.6868-0.9272-1.8591-1.5286-3.5683-1.5285
		c-0.1131,0-0.2287,0.0026-0.3465,0.008c-1.7,0.0772-3.1604,0.7774-3.6205,2.1423c-0.8277,2.4553,3.0899,4.9651,7.5354,7.4068
		C229.0227,178.8767,232.7111,176.1357,231.8303,173.7734z"/>
	<path fill="#FF0000" enable-background="new    " d="M235.4337,185.92c-0.4722-1.2625-1.9574-2.0619-4.0005-2.2135
		c-0.1776-0.0132-0.3503-0.0196-0.5187-0.0196c-1.776,0-3.0397,0.7121-3.7622,1.6853c-0.7547-1.0157-2.0431-1.6745-3.9216-1.6745
		c-0.1243,0-0.2513,0.0029-0.3809,0.0087c-1.8683,0.0845-3.4733,0.8516-3.9789,2.3468c-0.9096,2.6897,3.3958,5.4391,8.2814,8.1138
		C232.3481,191.5105,236.4017,188.5078,235.4337,185.92z"/>
	<path fill="#FF0000" enable-background="new    " d="M226.702,161.1348c-0.3557-1.3683-1.4741-2.2348-3.0128-2.3992
		c-0.1338-0.0143-0.2638-0.0212-0.3907-0.0212c-1.3375,0-2.2892,0.7718-2.8333,1.8266c-0.5684-1.1009-1.5387-1.8149-2.9534-1.8148
		c-0.0936,0-0.1893,0.0031-0.2868,0.0095c-1.407,0.0916-2.6158,0.923-2.9966,2.5436c-0.685,2.9152,2.5574,5.8952,6.2368,8.7942
		C224.3782,167.1941,227.431,163.9396,226.702,161.1348z"/>
	<path fill="#FF0000" enable-background="new    " d="M106.7707,184.3538c-0.7225-1.6215-2.9946-2.6484-6.1203-2.8431
		c-0.2717-0.0169-0.5359-0.0251-0.7936-0.0251c-2.7171,0-4.6504,0.9146-5.7557,2.1646c-1.1547-1.3046-3.1257-2.1508-5.9995-2.1507
		c-0.1902,0-0.3845,0.0037-0.5827,0.0112c-2.8583,0.1086-5.3137,1.0938-6.0873,3.0143c-1.3916,3.4547,5.1951,6.9862,12.6695,10.4217
		C102.05,191.5345,108.2516,187.6777,106.7707,184.3538z"/>
	<path fill="#FF0000" enable-background="new    " d="M104.4521,167.0254c-0.6036-1.3548-2.502-2.2128-5.1136-2.3755
		c-0.227-0.0141-0.4478-0.021-0.663-0.021c-2.2702,0-3.8854,0.7642-4.8089,1.8086c-0.9647-1.09-2.6116-1.797-5.0127-1.797
		c-0.1589,0-0.3213,0.0031-0.4868,0.0094c-2.3881,0.0907-4.4397,0.9139-5.086,2.5185c-1.1627,2.8864,4.3406,5.8371,10.5855,8.7075
		C100.508,173.025,105.6895,169.8026,104.4521,167.0254z"/>
	<path fill="#FF0000" enable-background="new    " d="M104.0528,149.0758c-0.5611-1.2594-2.3258-2.0569-4.7534-2.2081
		c-0.211-0.0132-0.4163-0.0195-0.6163-0.0195c-2.1103,0-3.6118,0.7103-4.4702,1.6812c-0.8968-1.0132-2.4276-1.6704-4.6596-1.6704
		c-0.1477,0-0.2987,0.0029-0.4525,0.0087c-2.2199,0.0843-4.127,0.8495-4.7278,2.3411c-1.0808,2.6831,4.0349,5.4259,9.84,8.0941
		C100.3864,154.6527,105.203,151.6573,104.0528,149.0758z"/>
	<path fill="#FF0000" enable-background="new    " d="M104.8479,136.1766c-0.4692-1.053-1.9447-1.7199-3.9745-1.8463
		c-0.1765-0.011-0.348-0.0163-0.5154-0.0163c-1.7645,0-3.0199,0.5939-3.7377,1.4057c-0.7498-0.8472-2.0298-1.3967-3.8961-1.3967
		c-0.1235,0-0.2497,0.0024-0.3784,0.0073c-1.8562,0.0705-3.4507,0.7103-3.9531,1.9575c-0.9037,2.2435,3.3737,4.5368,8.2276,6.7679
		C101.7823,140.8398,105.8096,138.3352,104.8479,136.1766z"/>
	<path fill="#FF0000" enable-background="new    " d="M116.2671,225.5285c-0.3855-2.7544-1.5979-4.4987-3.2657-4.8295
		c-0.145-0.0288-0.286-0.0427-0.4234-0.0427c-1.4498,0-2.4814,1.5536-3.0712,3.6769c-0.6161-2.216-1.6678-3.6534-3.2013-3.6533
		c-0.1015,0-0.2052,0.0063-0.3109,0.0191c-1.5252,0.1845-2.8354,1.858-3.2481,5.1202c-0.7425,5.8682,2.7721,11.867,6.7603,17.7027
		C113.7482,237.7258,117.0573,231.1746,116.2671,225.5285z"/>
	<path fill="#FF0000" enable-background="new    " d="M180.067,346.5984c-0.798-5.5126-3.3075-9.0036-6.76-9.6656
		c-0.3001-0.0576-0.592-0.0854-0.8765-0.0854c-3.0011,0-5.1364,3.1093-6.3572,7.3589c-1.2754-4.4352-3.4524-7.3118-6.6266-7.3117
		c-0.2101,0-0.4247,0.0126-0.6436,0.0382c-3.157,0.3692-5.8691,3.7185-6.7235,10.2475
		c-1.537,11.7446,5.7381,23.7504,13.9937,35.4299C174.853,371.01,181.7027,357.8984,180.067,346.5984z"/>
	<path fill="#FF0000" enable-background="new    " d="M168.2518,257.5555c-0.5566-1.4872-2.3068-2.429-4.7147-2.6076
		c-0.2093-0.0155-0.4129-0.0231-0.6113-0.0231c-2.0931,0-3.5824,0.8388-4.4338,1.9853c-0.8895-1.1965-2.4079-1.9725-4.6217-1.9725
		c-0.1465,0-0.2962,0.0034-0.4489,0.0103c-2.2019,0.0996-4.0934,1.0032-4.6893,2.7645c-1.072,3.1684,4.002,6.4073,9.7599,9.5581
		C164.6153,264.1411,169.3926,260.6039,168.2518,257.5555z"/>
	<path fill="#FF0000" enable-background="new    " d="M173.4031,243.3151c-0.4824-1.3493-1.9995-2.2038-4.0867-2.3659
		c-0.1814-0.0141-0.3579-0.0209-0.5299-0.0209c-1.8143,0-3.1052,0.7611-3.8432,1.8013c-0.771-1.0856-2.0871-1.7897-4.0061-1.7897
		c-0.127,0-0.2568,0.0031-0.3891,0.0094c-1.9086,0.0904-3.5481,0.9102-4.0647,2.5083c-0.9292,2.8748,3.4689,5.8134,8.4598,8.6723
		C170.251,249.2904,174.392,246.0811,173.4031,243.3151z"/>
	<path fill="#FF0000" enable-background="new    " d="M251.8595,60.918c-0.4045-1.4184-1.6765-2.3167-3.4264-2.487
		c-0.1521-0.0148-0.3-0.022-0.4443-0.022c-1.5212,0-2.6035,0.8-3.2223,1.8935c-0.6464-1.1412-1.7499-1.8814-3.3588-1.8813
		c-0.1065,0-0.2153,0.0033-0.3262,0.0098c-1.6002,0.095-2.9749,0.9568-3.408,2.6367c-0.7791,3.022,2.9085,6.1111,7.093,9.1163
		C249.2167,67.1992,252.6886,63.8255,251.8595,60.918z"/>
	<path fill="#FF0000" enable-background="new    " d="M172.6995,229.9663c-0.3467-1.4039-1.437-2.293-2.937-2.4615
		c-0.1304-0.0147-0.2572-0.0218-0.3808-0.0218c-1.3039,0-2.2316,0.7918-2.762,1.8741c-0.5541-1.1295-1.5-1.8621-2.8791-1.8621
		c-0.0913,0-0.1845,0.0032-0.2796,0.0097c-1.3717,0.094-2.55,0.947-2.9212,2.6097c-0.6678,2.991,2.493,6.0485,6.0799,9.0229
		C170.4341,236.1832,173.4102,232.8441,172.6995,229.9663z"/>
	<path fill="#FF0000" enable-background="new    " d="M177.6189,195.7258c-0.7479-1.6009-3.1-2.6147-6.3359-2.8069
		c-0.2813-0.0167-0.5548-0.0248-0.8215-0.0248c-2.8128,0-4.8142,0.9029-5.9584,2.137c-1.1953-1.288-3.2358-2.1234-6.2109-2.1233
		c-0.1969,0-0.3981,0.0037-0.6032,0.0111c-2.959,0.1072-5.5009,1.0798-6.3017,2.9759c-1.4406,3.4107,5.3781,6.8972,13.1158,10.2889
		C172.732,202.8149,179.152,199.0073,177.6189,195.7258z"/>
	<path fill="#FF0000" enable-background="new    " d="M173.1158,179.8526c-0.5898-1.5122-2.4446-2.4699-4.9964-2.6515
		c-0.2218-0.0158-0.4375-0.0234-0.6478-0.0234c-2.2181,0-3.7963,0.8529-4.6987,2.0187c-0.9426-1.2167-2.5517-2.0058-4.8978-2.0058
		c-0.1553,0-0.3139,0.0035-0.4757,0.0105c-2.3334,0.1013-4.3379,1.0201-4.9694,2.8112c-1.136,3.2218,4.2411,6.5153,10.3428,9.7193
		C169.2621,186.5493,174.3248,182.9525,173.1158,179.8526z"/>
	<path fill="#FF0000" enable-background="new    " d="M169.4632,163.6561c-0.351-1.4852-1.4549-2.4258-2.9735-2.6042
		c-0.132-0.0155-0.2604-0.023-0.3856-0.023c-1.3201,0-2.2594,0.8377-2.7964,1.9827c-0.561-1.1949-1.5186-1.97-2.9149-1.97
		c-0.0924,0-0.1868,0.0034-0.2831,0.0103c-1.3887,0.0995-2.5816,1.0019-2.9575,2.761c-0.6761,3.1643,2.524,6.399,6.1555,9.5458
		C167.1696,170.2333,170.1827,166.7007,169.4632,163.6561z"/>
	<path fill="#FF0000" enable-background="new    " d="M168.9732,149.8722c-0.3132-1.0849-1.2981-1.7719-2.6531-1.9022
		c-0.1178-0.0113-0.2323-0.0168-0.344-0.0168c-1.1778,0-2.0159,0.6119-2.495,1.4482c-0.5005-0.8728-1.3549-1.4389-2.6007-1.4389
		c-0.0824,0-0.1667,0.0025-0.2526,0.0075c-1.239,0.0726-2.3034,0.7318-2.6388,2.0167c-0.6032,2.3113,2.252,4.674,5.4921,6.9725
		C166.9269,154.6763,169.6152,152.096,168.9732,149.8722z"/>
	<path fill="#FF0000" enable-background="new    " d="M152.2248,230.8415c-0.3847-2.5816-1.5943-4.2164-3.2585-4.5264
		c-0.1447-0.027-0.2853-0.04-0.4225-0.04c-1.4466,0-2.4759,1.4561-3.0643,3.4462c-0.6148-2.077-1.6642-3.4242-3.1942-3.4241
		c-0.1013,0-0.2047,0.0059-0.3102,0.0179c-1.5218,0.1729-2.8291,1.7414-3.2409,4.799c-0.7409,5.5001,2.7659,11.1224,6.7453,16.592
		C149.7115,242.2735,153.0133,236.1333,152.2248,230.8415z"/>
	<path fill="#FF0000" enable-background="new    " d="M149.8716,198.9287c-0.3963-0.9115-1.6426-1.4888-3.3572-1.5982
		c-0.149-0.0095-0.294-0.0141-0.4353-0.0141c-1.4904,0-2.5509,0.5141-3.1572,1.2168c-0.6334-0.7334-1.7145-1.209-3.2909-1.209
		c-0.1043,0-0.2109,0.0021-0.3196,0.0063c-1.5679,0.061-2.9147,0.6149-3.3391,1.6944c-0.7633,1.942,2.8497,3.9272,6.9497,5.8584
		C147.2821,202.9652,150.6839,200.7972,149.8716,198.9287z"/>
	<path fill="#FF0000" enable-background="new    " d="M149.6598,210.6967c-0.6635-1.4085-2.7501-2.3005-5.6207-2.4696
		c-0.2495-0.0147-0.4922-0.0218-0.7288-0.0218c-2.4953,0-4.2708,0.7944-5.2858,1.8802c-1.0604-1.1332-2.8706-1.8682-5.5098-1.8682
		c-0.1747,0-0.3531,0.0032-0.5351,0.0098c-2.625,0.0943-4.88,0.9501-5.5904,2.6183c-1.278,3.0008,4.771,6.0684,11.6353,9.0526
		C145.3245,216.934,151.0199,213.5839,149.6598,210.6967z"/>
	<path fill="#FF0000" enable-background="new    " d="M124.5896,266.531c-0.5346-3.3404-2.2158-5.4558-4.5288-5.8569
		c-0.2011-0.0349-0.3966-0.0518-0.5872-0.0518c-2.0105,0-3.4411,1.8841-4.2589,4.4592c-0.8544-2.6875-2.3129-4.4306-4.4394-4.4305
		c-0.1407,0-0.2845,0.0077-0.4311,0.0232c-2.115,0.2237-3.9319,2.2532-4.5043,6.2095c-1.0297,7.1167,3.8442,14.3917,9.3749,21.469
		C121.0965,281.3233,125.6854,273.3783,124.5896,266.531z"/>
	<path fill="#FF0000" enable-background="new    " d="M208.3665,197.1786c-0.367-2.4803-1.5212-4.0511-3.109-4.349
		c-0.138-0.0259-0.2722-0.0384-0.4031-0.0384c-1.3802,0-2.3623,1.399-2.9237,3.3111c-0.5865-1.9956-1.5878-3.2899-3.0476-3.2898
		c-0.0966,0-0.1953,0.0057-0.296,0.0172c-1.4519,0.1661-2.6992,1.6731-3.0922,4.6108c-0.7069,5.2844,2.639,10.6863,6.4358,15.9414
		C205.9685,208.1624,209.1187,202.263,208.3665,197.1786z"/>
	<path fill="#FF0000" enable-background="new    " d="M405.5824,363.2078c-0.7258-5.1716-3.0083-8.4467-6.1484-9.0677
		c-0.273-0.054-0.5384-0.0802-0.7972-0.0802c-2.7296,0-4.6717,2.9169-5.7821,6.9037c-1.16-4.1608-3.1401-6.8596-6.0271-6.8594
		c-0.1911,0-0.3863,0.0118-0.5853,0.0359c-2.8714,0.3463-5.3381,3.4885-6.1153,9.6137
		c-1.3979,11.0182,5.219,22.2814,12.7277,33.2385C400.8401,386.1095,407.0701,373.8089,405.5824,363.2078z"/>
	<path fill="#FF0000" enable-background="new    " d="M519.2427,315.5332c-0.348-2.4919-1.4425-4.0699-2.9482-4.3692
		c-0.1309-0.026-0.2582-0.0386-0.3823-0.0386c-1.3088,0-2.2402,1.4055-2.7726,3.3265c-0.5563-2.0049-1.5057-3.3052-2.8901-3.3051
		c-0.0916,0-0.1852,0.0057-0.2807,0.0173c-1.3769,0.1669-2.5597,1.6809-2.9324,4.6323c-0.6703,5.309,2.5026,10.736,6.1032,16.0155
		C516.9688,326.5681,519.9562,320.6412,519.2427,315.5332z"/>
	<path fill="#FF0000" enable-background="new    " d="M261.7303,158.6799c-0.5136-2.5766-2.1289-4.2083-4.3511-4.5177
		c-0.1932-0.0269-0.381-0.0399-0.5642-0.0399c-1.9317,0-3.3061,1.4533-4.0918,3.4396c-0.8209-2.073-2.2221-3.4176-4.2652-3.4175
		c-0.1352,0-0.2734,0.0059-0.4142,0.0179c-2.032,0.1726-3.7776,1.738-4.3276,4.7897c-0.9893,5.4895,3.6933,11.101,9.0071,16.5601
		C258.3743,170.09,262.7831,163.9616,261.7303,158.6799z"/>
	<path fill="#FF0000" enable-background="new    " d="M244.3013,154.2084c-0.4011-1.6203-1.6624-2.6463-3.3978-2.8409
		c-0.1508-0.0169-0.2975-0.0251-0.4406-0.0251c-1.5084,0-2.5817,0.9139-3.1953,2.1629c-0.641-1.3036-1.7353-2.1491-3.3307-2.149
		c-0.1056,0-0.2135,0.0037-0.3235,0.0112c-1.5868,0.1085-2.95,1.0929-3.3794,3.0119c-0.7726,3.4519,2.8841,6.9806,7.0336,10.4134
		C241.6806,161.3833,245.1235,157.5296,244.3013,154.2084z"/>
	<path fill="#FF0000" enable-background="new    " d="M206.9893,133.7847c-0.345-1.3937-1.4301-2.2764-2.9228-2.4437
		c-0.1298-0.0146-0.256-0.0216-0.379-0.0216c-1.2976,0-2.2208,0.7861-2.7487,1.8605c-0.5514-1.1213-1.4927-1.8486-2.8652-1.8486
		c-0.0908,0-0.1836,0.0032-0.2782,0.0097c-1.365,0.0933-2.5376,0.9401-2.9071,2.5909c-0.6646,2.9693,2.481,6.0047,6.0505,8.9576
		C204.7349,139.9566,207.6965,136.6416,206.9893,133.7847z"/>
	<path fill="#FF0000" enable-background="new    " d="M197.066,124.3003c-0.4254-1.2204-1.7632-1.9932-3.6037-2.1397
		c-0.16-0.0127-0.3156-0.0189-0.4673-0.0189c-1.5998,0-2.7381,0.6883-3.3889,1.6291c-0.6799-0.9818-1.8404-1.6186-3.5326-1.6186
		c-0.112,0-0.2264,0.0028-0.3431,0.0085c-1.683,0.0817-3.1287,0.8232-3.5842,2.2685c-0.8194,2.6,3.0589,5.2577,7.4599,7.8433
		C194.2865,129.7044,197.938,126.8018,197.066,124.3003z"/>
	<path fill="#FF0000" enable-background="new    " d="M188.9304,112.001c-0.4323-0.9161-1.7917-1.4962-3.662-1.6062
		c-0.1626-0.0096-0.3207-0.0142-0.4748-0.0142c-1.6257,0-2.7824,0.5167-3.4438,1.2229c-0.6909-0.737-1.8702-1.2151-3.5897-1.215
		c-0.1138,0-0.2301,0.0021-0.3486,0.0064c-1.7102,0.0613-3.1794,0.6179-3.6422,1.7029c-0.8326,1.9517,3.1084,3.9468,7.5805,5.8877
		C186.1059,116.0577,189.8165,113.8788,188.9304,112.001z"/>
	<path fill="#FF0000" enable-background="new    " d="M217.501,109.4895c-0.3857-2.1231-1.5988-3.4676-3.2676-3.7226
		c-0.1451-0.0222-0.2861-0.0329-0.4237-0.0329c-1.4506,0-2.4828,1.1975-3.0729,2.8342c-0.6165-1.7081-1.6688-2.816-3.2031-2.816
		c-0.1015,0-0.2053,0.0049-0.3111,0.0147c-1.526,0.1422-2.837,1.4321-3.25,3.9467c-0.743,4.5233,2.7737,9.1471,6.7642,13.6453
		C214.9807,118.8913,218.2917,113.8416,217.501,109.4895z"/>
	<path fill="#FF0000" enable-background="new    " d="M204.9086,103.6822c-0.2998-1.6502-1.2426-2.6952-2.5397-2.8933
		c-0.1127-0.0172-0.2224-0.0256-0.3293-0.0256c-1.1275,0-1.9297,0.9307-2.3884,2.2028c-0.4791-1.3276-1.297-2.1887-2.4896-2.1887
		c-0.0789,0-0.1596,0.0038-0.2418,0.0114c-1.1861,0.1105-2.205,1.1131-2.526,3.0675c-0.5775,3.5157,2.1558,7.1095,5.2574,10.6057
		C202.9498,110.9896,205.5232,107.0648,204.9086,103.6822z"/>
	<path fill="#FF0000" enable-background="new    " d="M196.4262,94.9679c-0.2998-1.6502-1.2426-2.6952-2.5397-2.8933
		c-0.1128-0.0172-0.2224-0.0256-0.3293-0.0256c-1.1275,0-1.9297,0.9307-2.3884,2.2028c-0.4792-1.3276-1.2971-2.1888-2.4896-2.1887
		c-0.0789,0-0.1596,0.0038-0.2418,0.0114c-1.1861,0.1105-2.205,1.1131-2.526,3.0675c-0.5775,3.5157,2.1558,7.1095,5.2574,10.6057
		C194.4674,102.2754,197.0408,98.3505,196.4262,94.9679z"/>
	<path fill="#FF0000" enable-background="new    " d="M350.5739,93.3854c-0.4483-1.1481-1.8579-1.8752-3.7973-2.0131
		c-0.1686-0.012-0.3325-0.0178-0.4924-0.0178c-1.6858,0-2.8853,0.6476-3.5711,1.5326c-0.7164-0.9237-1.9393-1.5228-3.7224-1.5228
		c-0.118,0-0.2386,0.0026-0.3615,0.008c-1.7734,0.0769-3.2969,0.7745-3.7768,2.1343c-0.8634,2.4461,3.2233,4.9465,7.8607,7.379
		C347.645,98.4697,351.4927,95.7389,350.5739,93.3854z"/>
	<path fill="#FF0000" enable-background="new    " d="M382.0735,124.8028c-0.3255-1.9178-1.3493-3.1323-2.7577-3.3625
		c-0.1224-0.02-0.2415-0.0297-0.3576-0.0297c-1.2243,0-2.0953,1.0817-2.5934,2.5601c-0.5203-1.5429-1.4084-2.5437-2.7033-2.5436
		c-0.0857,0-0.1732,0.0044-0.2625,0.0133c-1.2879,0.1284-2.3943,1.2936-2.7428,3.565c-0.627,4.0858,2.3408,8.2625,5.7086,12.3256
		C379.9465,133.2953,382.7408,128.7339,382.0735,124.8028z"/>
	<path fill="#FF0000" enable-background="new    " d="M341.4334,52.3474c-0.3579-1.096-1.4837-1.7901-3.0324-1.9217
		c-0.1346-0.0114-0.2655-0.017-0.3932-0.017c-1.3462,0-2.3041,0.6182-2.8517,1.4631c-0.5721-0.8818-1.5487-1.4537-2.9726-1.4537
		c-0.0942,0-0.1905,0.0025-0.2887,0.0076c-1.4162,0.0734-2.6328,0.7393-3.0161,2.0374c-0.6895,2.335,2.574,4.722,6.2773,7.044
		C339.0945,57.2008,342.1672,54.594,341.4334,52.3474z"/>
	<path fill="#FF0000" enable-background="new    " d="M232.0159,146.2279c-0.4323-0.9161-1.7917-1.4962-3.662-1.6062
		c-0.1626-0.0096-0.3207-0.0142-0.4748-0.0142c-1.6257,0-2.7824,0.5167-3.4438,1.2229c-0.6909-0.737-1.8702-1.2151-3.5897-1.215
		c-0.1138,0-0.2301,0.0021-0.3486,0.0063c-1.7102,0.0614-3.1794,0.6179-3.6422,1.7029c-0.8326,1.9517,3.1084,3.9468,7.5806,5.8877
		C229.1914,150.2846,232.902,148.1057,232.0159,146.2279z"/>
	<path fill="#FF0000" enable-background="new    " d="M110.7898,200.2945c-0.5016-1.2575-2.079-2.0538-4.2491-2.2048
		c-0.1886-0.0131-0.3721-0.0195-0.5509-0.0195c-1.8864,0-3.2285,0.7093-3.9959,1.6786c-0.8016-1.0117-2.17-1.6679-4.1652-1.6679
		c-0.132,0-0.267,0.0029-0.4045,0.0087c-1.9844,0.0842-3.6891,0.8482-4.2261,2.3376c-0.9661,2.6791,3.6067,5.4177,8.7959,8.0819
		C107.5124,205.863,111.8179,202.8721,110.7898,200.2945z"/>
	<path fill="#FF0000" enable-background="new    " d="M249.1822,130.868c-0.634-1.5895-2.6278-2.5961-5.3707-2.7869
		c-0.2384-0.0166-0.4703-0.0246-0.6964-0.0246c-2.3843,0-4.0808,0.8965-5.0507,2.1218c-1.0133-1.2788-2.7429-2.1083-5.2648-2.1082
		c-0.1669,0-0.3374,0.0036-0.5113,0.011c-2.5082,0.1064-4.6629,1.0722-5.3418,2.9547c-1.2211,3.3864,4.5589,6.8481,11.1178,10.2157
		C245.0397,137.9066,250.4817,134.1261,249.1822,130.868z"/>
	<path fill-rule="evenodd" clip-rule="evenodd" d="M316.28,31.1152c10.8678,28.9607,12.3066,52.7383,8.4546,73.1749
		c-1.341,7.1147-3.3468,13.8858-5.8515,20.4157c-9.1001-7.5861-16.7128-15.8074-22.4124-25.0452
		c-6.6184-10.7272-10.7714-23.0003-11.5376-37.4437c-0.7659,14.4403,1.8604,27.4924,7.486,39.6111
		c5.2648,11.3414,13.0777,21.6898,22.8626,31.4093c-4.1383,8.9501-9.1633,17.4875-14.6688,25.8641
		c-0.1074,0.1636-0.2086,0.313-0.3155,0.4751c-10.4598-2.6515-19.3084-6.9284-26.8313-12.5342
		c-8.1567-6.0784-14.8365-13.7775-20.2751-22.7484c-10.9414-18.0479-16.4766-40.5963-19.2328-63.5422
		c0.3104,22.8226,3.4042,46.6614,12.7829,66.9577c2.5863,5.5973,5.6752,10.9701,9.3483,16.0064
		c-13.6743,0.9995-25.3559-2.6651-36.2797-9.1437c-12.9946-7.7066-24.5563-19.1427-36.7733-30.6593
		c11.3902,12.0833,22.4577,24.4477,35.1827,33.1515c11.7808,8.0581,25.2701,13.1788,42.058,11.9438
		c1.9094,2.2212,3.9512,4.3597,6.1375,6.4046c7.0356,6.5809,15.4962,12.1309,25.5844,16.2845
		c-9.1916,12.9597-17.0708,22.6845-28.5375,39.8624c-7.3587,11.024-14.4748,22.9357-20.425,36.0891
		c-11.5818-5.9746-21.9626-13.3008-31.0156-21.8642c5.2778-9.6117,6.5183-19.5914,5.8672-29.147
		c-0.7481-10.978-4.0357-22.1116-7.2922-32.5548c1.3397,11.1175,2.4965,22.1324,1.2422,32.4187
		c-0.9706,7.9597-3.339,14.9797-7.7205,21.1048c-2.8581-3.2371-5.5598-6.6118-8.0781-10.1389
		c-13.9567-19.5483-22.6625-43.5799-24.647-70.9781c-1.9774,27.2993,2.7388,53.5563,14.4422,77.0609
		c10.6728,21.4342,27.0984,40.4198,49.1015,55.3797c-0.8127,2.6277-1.5823,5.2928-2.2813,8.0172
		c-4.5054,18.4555-4.8722,37.1256-2.7859,55.6109c-13.0502-4.8067-25.2686-11.6719-36.6171-20.3454
		c-9.224-7.0494-17.8047-15.2475-25.7125-24.3689c3.0475-3.393,5.2951-7.0537,6.8938-10.8561
		c2.168-5.1565,3.1439-10.5276,3.4453-15.8218c0.6074-10.6759-1.5118-21.97-3.1845-31.9062
		c-0.252,10.4238-0.1681,21.2757-2.6203,31.0467c-1.1838,4.7169-2.9089,8.9478-5.3765,12.6156
		c-1.6455,2.4457-3.6295,4.6352-6.0078,6.5735c-4.0005-5.1477-7.8103-10.5346-11.4125-16.1438
		c-10.2623-15.9787-18.758-33.5041-25.4172-51.6453c10.0874-8.9776,18.802-20.1342,24.8486-31.839
		c6.224-12.0484,9.5981-24.6232,8.8061-35.9688c-0.7833,11.224-5.656,22.9305-12.8688,33.561
		c-6.4581,9.5179-14.8396,18.2308-23.9813,25.0546c-7.8276-23.7424-12.5575-48.255-14.033-71.5124
		c-2.2731,35.8375,3.1879,76.7239,17.0484,114.7906c-5.6055,0.2194-10.4623-0.267-14.739-1.3501
		c-5.9116-1.4967-10.9511-4.1669-15.5202-7.8829c-9.3314-7.5889-16.1402-19.0218-24.1093-32.0156
		c6.1555,13.4297,11.6802,26.4694,20.3766,35.9484c4.4428,4.8427,9.8198,8.894,16.6782,11.6595
		c6.0256,2.4296,13.0408,3.8021,21.3032,3.9217c2.1512,5.2404,4.4586,10.4145,6.9424,15.4953
		c7.9477,16.2587,17.6958,31.758,29.3624,45.6642c-9.2302,4.532-18.1253,7.2567-26.839,8.5515
		c-10.5143,1.5625-20.8696,1.0659-31.322-0.911c-21.0841-3.9875-41.7427-13.809-63.9423-23.7376
		c20.9098,11.6067,41.2198,23.633,62.4844,29.8015c10.7289,3.1121,21.8911,4.7996,33.7017,4.153
		c10.9539-0.5995,22.3662-3.2071,34.3703-8.4376c1.4332,1.4961,2.8818,2.9784,4.3657,4.4266
		c16.5875,16.1881,36.5114,29.4293,59.9298,37.7124c0.5561,2.1895,1.1276,4.3744,1.7203,6.55
		c8.0776,29.6575,21.877,65.6104,29.8562,92.325c4.3634,14.6089,7.7009,28.3257,9.4374,41.328
		c1.7337,12.9801,1.7901,24.6764-0.0266,35.3656c-1.463,8.6085-4.1562,16.6643-8.2749,24.3578
		c-3.646,6.8103-40.7503,46.9213-54.8516,61.5251h98.3673c6.7034-11.3925,8.9561-23.7093,13.8062-35.5063
		c6.0792-14.7863,9.2137-29.6217,10.1421-44.2749c1.1341-17.8973-1.0358-35.2731-4.8765-51.7546
		c-3.8321-16.4441-9.4575-32.5316-15.5905-47.9064c-7.3545-18.4365-14.5015-34.0089-21.3531-49.3999
		c19.673-4.6452,38.2867-12.5286,55.2781-22.75c15.395-9.2611,29.5787-20.509,42.1968-33.1609
		c22.1514,10.0143,44.879,11.746,66.511,8.3203c23.0207-3.6456,45.1466-13.1743,64.6702-25.2343
		c-20.5535,10.4777-42.9188,17.939-65.3298,19.6126c-19.9321,1.4882-39.5983-1.6203-58.0141-10.9562
		c3.738-4.1445,7.3207-8.4095,10.7217-12.7905c11.1206-14.3257,20.4046-29.8734,27.472-46.1015
		c12.0353-3.0563,22.0297-10.9341,29.9406-19.4686c8.7013-9.3872,15.4596-20.1841,20.0328-28.0625
		c-5.8519,7.1609-13.6313,16.8395-23.0687,24.9095c-7.1801,6.1396-14.9448,11.0092-23.1139,13.2891
		c1.8739-4.9742,3.5484-9.9984,4.9906-15.0642c7.1348-25.0596,8.8016-50.8716,3.9252-75.7437
		c1.8054,25.2097-3.0785,49.9414-12.6593,72.6798c-6.9335,16.4548-16.3763,31.9524-27.6624,45.9609
		c-4.2514-7.6873-7.297-15.6671-9.3062-24.0967c-2.5775-10.8136-3.4341-22.2597-3.0203-34.5657
		c-2.3607,12.0112-3.5354,23.7529-2.8219,35.4203c0.6574,10.7501,2.9282,21.4951,7.3766,32.3439
		c-1.9525,2.1529-3.9452,4.267-5.9845,6.3329c-17.4866,17.7156-37.9777,32.0666-59.7937,41.8016
		c-0.29,0.1293-0.5817,0.2503-0.872,0.3782c-2.26-6.9024-3.2408-15.0562-2.4562-22.8515c0.974-9.6752,4.682-19.0018,12.3812-24.4624
		c-8.7545,4.1133-14.5196,12.9883-17.3781,23.5187c-2.3624,8.703-2.7119,18.4816-1.1922,27.3283
		c-15.4199,5.826-31.2143,9.2761-46.872,10.089c-0.7297-1.8878-1.4542-3.7975-2.1734-5.7344
		c-7.8616-21.1683-13.1604-41.1738-13.7984-60.2859c14.7795,1.6668,28.3903,0.5553,40.7967-2.611
		c15.1084-3.8559,28.3235-10.7195,39.7219-19.1562c22.7004-16.8021,38.7329-40.2415,48.636-60.3797
		c-12.4665,18.9757-30.3176,39.7625-53.2984,53.3829c-7.3936,4.3821-15.2535,7.9767-23.5672,10.5469
		c-1.5914-8.9787-1.338-16.3026,0.6531-22.928c2.2725-7.5617,6.8388-14.4054,13.5592-21.7095
		c-7.7743,5.8936-14.1228,11.9078-18.375,19.6702c-4.0609,7.4129-6.1095,16.2216-5.7141,27.4765
		c-1.3827,0.2767-2.774,0.5315-4.1797,0.7501c-11.6481,1.8099-24.1588,1.5877-37.5811-1.2796
		c0.0873-0.7359,0.1819-1.4715,0.286-2.2048c2.7759-21.1303,10.0882-40.1439,19.5219-59.2483
		c0.2676-0.542,0.5802-1.1384,0.8578-1.6923c23.682-4.6607,44.7451-12.0764,62.886-22.2704
		c14.0992,6.0265,28.0375,6.6467,40.6392,3.3171c13.2792-3.5087,25.0753-11.3734,34.4327-21.9282
		c-10.618,9.4135-22.8796,15.3005-35.4186,16.9313c-9.9077,1.2883-19.9559-0.0836-29.6938-4.3954
		c10.3454-6.8338,19.5954-14.69,27.6656-23.5905c24.4865-27.006,37.6843-62.9841,39.1578-107.7905
		c-4.5136,44.8651-20.6844,78.2572-45.6296,101.4125c-0.557,0.5171-1.1242,1.0239-1.6906,1.5313
		c-5.9601-12.0523-9.7007-26.0288-10.5828-39.5719c-0.98-15.0429,1.5505-29.6184,8.5093-40.3594
		c-7.9829,10.1676-11.8312,24.7518-11.9985,40.4546c-0.1562,14.6557,2.8922,30.2454,8.7548,43.9968
		c-20.4046,16.4061-46.1897,27.1327-76.6703,32.5829c6.5837-12.1595,13.6031-24.9106,18.6984-35.5657
		c9.3447-19.5415,16.4903-39.6893,17.725-62.1516c0.273-4.9652,0.237-10.0191-0.1031-15.1719
		c13.3523-4.6369,21.3378-12.9719,26.9141-22.6454c5.7064-9.8997,9.1746-21.6876,13.3874-33.05
		c-5.4473,11.1421-9.9045,22.0839-16.4641,31.0532c-5.9874,8.1868-13.4456,14.2997-24.5189,17.3892
		c-1.9647-15.9701-7.0276-33.0021-16.0954-51.736L316.28,31.1152z"/>
</g>
<g id="Red_Heart">
</g>
</svg>
